<?xml version="1.0" encoding="UTF-8"?>
<svg id="Layer_1" data-name="Layer 1" xmlns="http://www.w3.org/2000/svg" viewBox="0 0 1024 1024">
  <defs>
    <style>
      .cls-1 {
        fill: #966000;
      }

      .cls-2 {
        fill: #fff;
      }

      .cls-3 {
        fill: #ffa300;
      }
    </style>
  </defs>
  <circle id="Sun" class="cls-3" cx="236.89" cy="169.89" r="92.86"/>
  <path id="Cloud" class="cls-2" d="M782.78,433.01c0,28.17-11.42,53.66-29.87,72.12-16.49,16.49-38.61,27.36-63.22,29.48-2.93.26-5.9.39-8.89.39h-327.26c-64.43,0-116.65-52.23-116.65-116.65,0-32.21,13.05-61.37,34.16-82.48,19.99-19.99,47.19-32.76,77.38-34.05,22.84-72.84,90.87-125.68,171.24-125.68,91.25,0,166.59,68.11,177.95,156.27,48.32,8.02,85.16,50.01,85.16,100.6Z"/>
  <g id="Dollar2">
    <path class="cls-2" d="M531.83,580.55v20.43h.47c7.56,0,16.18,1.33,25.86,3.99,12.67,3.47,19.01,7.9,19.01,13.3,0,7.09-3.5,10.64-10.51,10.64-3.15,0-8.68-.87-16.59-2.6-7.91-1.73-13.99-2.56-18.24-2.48v49.21c17.39,1.61,31.01,7.46,40.85,17.53,8.97,9.35,13.46,20.63,13.46,33.85,0,16.2-5.47,29.62-16.41,40.26-9.68,9.35-22.32,15.52-37.9,18.5v32.16c0,3.14-1,5.74-3.01,7.8-2.01,2.06-4.55,3.08-7.62,3.08-6.93,0-10.39-3.55-10.39-10.64v-30.83c-38.41-.57-57.62-10.76-57.62-30.59,0-7.25,3.27-10.88,9.8-10.88,3.7,0,7.24,1.49,10.63,4.47,5.04,4.43,8.86,7.33,11.45,8.71,6.3,3.22,14.88,5.08,25.74,5.56v-68.55h-.95c-12.2-.48-22.75-3.55-31.64-9.19-11.02-6.93-16.53-16.56-16.53-28.9,0-11.04,5.04-21.44,15.11-31.19,9.29-9.03,20.62-15.6,34-19.71v-23.21c0-3.14,1.04-5.76,3.13-7.86,2.08-2.09,4.66-3.14,7.73-3.14,6.77,0,10.15,3.43,10.15,10.28ZM510.82,671.11v-43.4c-15.67,6.04-23.5,15.4-23.5,28.05,0,7.82,7.83,12.94,23.5,15.35ZM531.83,696.62v62.87c8.34-2.9,15.31-7.17,20.9-12.82,6.22-6.45,9.33-13.42,9.33-20.92,0-14.02-10.08-23.74-30.23-29.14Z"/>
  </g>
  <g id="Dollar1">
    <path class="cls-2" d="M392.71,576.98v15.1h.38c6.05,0,12.95.98,20.7,2.95,10.15,2.56,15.22,5.84,15.22,9.83,0,5.24-2.81,7.87-8.41,7.87-2.52,0-6.95-.64-13.28-1.92-6.33-1.28-11.2-1.89-14.61-1.83v36.38c13.93,1.19,24.83,5.51,32.71,12.96,7.18,6.91,10.78,15.25,10.78,25.03,0,11.98-4.38,21.9-13.14,29.76-7.75,6.91-17.87,11.47-30.35,13.67v23.77c0,2.32-.8,4.25-2.41,5.76-1.61,1.52-3.64,2.28-6.1,2.28-5.55,0-8.32-2.62-8.32-7.86v-22.79c-30.76-.42-46.14-7.95-46.14-22.61,0-5.36,2.61-8.04,7.85-8.04,2.96,0,5.8,1.1,8.51,3.31,4.03,3.28,7.09,5.42,9.17,6.44,5.04,2.38,11.91,3.75,20.61,4.11v-50.68h-.76c-9.77-.36-18.22-2.62-25.34-6.79-8.83-5.12-13.24-12.24-13.24-21.36,0-8.16,4.03-15.85,12.1-23.06,7.44-6.67,16.51-11.53,27.23-14.57v-17.16c0-2.32.83-4.26,2.51-5.81,1.67-1.55,3.73-2.32,6.19-2.32,5.42,0,8.13,2.53,8.13,7.6ZM375.88,643.92v-32.09c-12.54,4.47-18.81,11.38-18.81,20.74,0,5.78,6.27,9.56,18.81,11.35ZM392.71,662.78v46.48c6.68-2.15,12.26-5.3,16.73-9.47,4.98-4.77,7.47-9.92,7.47-15.46,0-10.37-8.07-17.55-24.2-21.54Z"/>
  </g>
  <g id="Dollar3">
    <path class="cls-2" d="M659.44,581.61v15.24h.34c5.41,0,11.58.99,18.51,2.98,9.07,2.58,13.61,5.89,13.61,9.92,0,5.29-2.51,7.93-7.52,7.93-2.25,0-6.21-.65-11.88-1.94-5.66-1.29-10.02-1.91-13.06-1.85v36.69c12.45,1.2,22.2,5.56,29.25,13.07,6.42,6.97,9.64,15.39,9.64,25.24,0,12.08-3.92,22.09-11.75,30.02-6.93,6.97-15.98,11.57-27.13,13.79v23.98c0,2.34-.72,4.28-2.16,5.81-1.44,1.53-3.25,2.3-5.45,2.3-4.96,0-7.44-2.65-7.44-7.93v-22.99c-27.5-.42-41.25-8.02-41.25-22.81,0-5.41,2.34-8.11,7.02-8.11,2.65,0,5.18,1.11,7.61,3.34,3.61,3.31,6.34,5.47,8.2,6.49,4.51,2.4,10.65,3.79,18.43,4.15v-51.11h-.68c-8.73-.36-16.29-2.64-22.65-6.85-7.89-5.17-11.83-12.35-11.83-21.55,0-8.23,3.61-15.99,10.82-23.26,6.65-6.73,14.76-11.63,24.34-14.69v-17.31c0-2.34.75-4.3,2.24-5.86,1.49-1.56,3.34-2.34,5.54-2.34,4.85,0,7.27,2.56,7.27,7.66ZM644.39,649.13v-32.36c-11.21,4.51-16.82,11.48-16.82,20.91,0,5.83,5.61,9.65,16.82,11.45ZM659.44,668.15v46.88c5.97-2.16,10.96-5.35,14.96-9.56,4.45-4.81,6.68-10.01,6.68-15.6,0-10.46-7.21-17.7-21.64-21.73Z"/>
  </g>
  <circle id="Sun_White" data-name="Sun White" class="cls-2" cx="236.89" cy="169.89" r="84.78"/>
  <circle id="Sun_Cover_With_Blur" data-name="Sun Cover With Blur" class="cls-3" cx="236.89" cy="169.89" r="84.78"/>
  <g>
    <path class="cls-1" d="M225.73,201.64c-.77,0-1.85-.23-3.25-.69-1.4-.46-2.47-.69-3.2-.69-1.57,0-3.92.09-7.05.27-3.13.18-5.5.27-7.1.27-1.2,0-2.97.15-5.32.44-2.35.3-4.13.44-5.32.44-.34,0-.83-.06-1.48-.18-.65-.12-1.14-.18-1.47-.18-2.12,0-3.5-.99-4.15-2.98-.37-1.04-.55-2.82-.55-5.34,0-6.91,1.95-12.47,5.85-16.68,1.78-1.93,6.59-5.48,14.43-10.67,4.39-2.91,7.33-5.17,8.8-6.8,2.64-2.85,3.96-6.18,3.96-10.01,0-1.9-1.28-3.59-3.83-5.07-2.24-1.33-4.44-2-6.59-2-2.83,0-5.52.79-8.07,2.36l-6.59,4.98c-1.32,1.01-2.38,1.51-3.18,1.51-3.17,0-4.75-1.22-4.75-3.65,0-1.39.58-2.59,1.75-3.6,3.6-3.26,6.71-5.62,9.36-7.07,3.72-2.05,7.54-3.07,11.48-3.07,4.98,0,9.42,1.31,13.32,3.91,4.36,2.94,6.55,6.7,6.55,11.3,0,3.02-.45,5.81-1.34,8.36-.89,2.55-2.24,4.88-4.06,6.98-2.3,2.67-6.21,5.65-11.71,8.94-5.78,3.5-9.57,6.15-11.38,7.96-3.41,3.41-5.09,7.55-5.02,12.41l9.5-.84c6.51-.36,11.17-.53,13.97-.53,2.33,0,4.55.39,6.64,1.16,2.77,1.04,4.15,2.48,4.15,4.31,0,1.16-.42,2.19-1.24,3.09-.83.9-1.86,1.36-3.09,1.36Z"/>
    <path class="cls-1" d="M262.79,204.35c-8.73,0-15.15-3.11-19.27-9.34-.55-.86-.83-1.69-.83-2.49,0-1.16.48-2.16,1.43-3,.95-.85,2.03-1.27,3.23-1.27,1.26,0,2.46.65,3.6,1.96,1.63,1.9,2.86,3.11,3.69,3.65,2,1.3,4.72,1.96,8.16,1.96,5.32,0,9.73-1.96,13.23-5.87,3.35-3.74,5.02-8.23,5.02-13.48,0-4.33-.74-7.84-2.21-10.54-1.91-3.41-4.84-5.11-8.8-5.11-3.29,0-5.98.43-8.07,1.29-1.66.68-3.33,1.85-5.02,3.51l-5.02,5.29c-1.35,1.33-2.74,2-4.15,2-1.23,0-2.27-.42-3.13-1.27-.86-.84-1.29-1.86-1.29-3.05,0-.59.25-3.23.74-7.92,1.04-9.34,1.57-15.48,1.57-18.41,0-1.04-.27-2.17-.81-3.4-.54-1.23-.81-2.14-.81-2.74,0-1.81,1.61-2.71,4.84-2.71.61,0,1.54.05,2.79.16,1.24.1,2.17.16,2.79.16,1.78,0,4.46-.06,8.02-.18,3.56-.12,6.24-.18,8.02-.18.83,0,2.09.03,3.78.09,1.69.06,2.95.09,3.78.09.58,0,1.43-.11,2.54-.33,1.11-.22,1.94-.33,2.49-.33,1.2,0,2.26.43,3.18,1.29.92.86,1.38,1.85,1.38,2.98,0,3.32-3.64,4.98-10.92,4.98-.95,0-2.15-.03-3.6-.09-1.44-.06-2.32-.09-2.63-.09l-7.79.13-7.79.22c0,1.33-.57,6.27-1.71,14.81,4.21-3.23,9.82-4.85,16.82-4.85s11.92,2.55,15.49,7.65c3.01,4.33,4.52,9.84,4.52,16.54,0,8.01-2.43,14.6-7.28,19.79-5.04,5.4-11.69,8.09-19.96,8.09Z"/>
  </g>
</svg>