<?xml version="1.0" encoding="UTF-8"?>
<!-- Generator: CustomSymbols v2.7.2.48 by @serious_bret https://bretlester.com/app_content/CustomSymbols/ -->
<!-- Guides: Left/Right 0.0/0.0 Cap/Base 0.0/0.0 -->
<!-- Settings: RefScale 1.0 Min/Max Stroke Scales 0.5/2.21 -->
<!DOCTYPE svg
PUBLIC "-//W3C//DTD SVG 1.1//EN"
       "http://www.w3.org/Graphics/SVG/1.1/DTD/svg11.dtd">
<svg version="1.1" xmlns="http://www.w3.org/2000/svg" xmlns:xlink="http://www.w3.org/1999/xlink" width="3300" height="2200">
<![CDATA[<svg xmlns="http://www.w3.org/2000/svg" viewBox="0 0 640 512"><!--!Font Awesome Pro 6.6.0 by @fontawesome - https://fontawesome.com License - https://fontawesome.com/license (Commercial License) Copyright 2024 Fonticons, Inc.--><path d="M0 112C0 85.5 21.5 64 48 64l48 0 0-32c0-17.7 14.3-32 32-32s32 14.3 32 32l0 32 128 0 0-32c0-17.7 14.3-32 32-32s32 14.3 32 32l0 32 48 0c26.5 0 48 21.5 48 48l0 48L0 160l0-48zm0 80l376 0c-30.8 0-55.7 24.8-56 55.5l0 121.3c.3 59.2 29.8 111.5 74.8 143.2L48 512c-26.5 0-48-21.5-48-48L0 192zm352 56c0-13.3 10.7-24 24-24s24 10.7 24 24l0 12.7c25.5-22.8 59.1-36.7 96-36.7c59.1 0 109.8 35.6 132 86.4c5.3 12.1-.3 26.3-12.4 31.6s-26.3-.3-31.6-12.4c-14.8-33.9-48.7-57.6-88-57.6c-28.5 0-54 12.3-71.6 32l31.6 0c13.3 0 24 10.7 24 24s-10.7 24-24 24l-80 0c-13.3 0-24-10.7-24-24l0-80zm12 177.6c-5.3-12.1 .3-26.3 12.4-31.6s26.3 .3 31.6 12.4c14.8 33.9 48.7 57.6 88 57.6c28.5 0 54-12.3 71.6-32L536 432c-13.3 0-24-10.7-24-24s10.7-24 24-24l80 0c13.3 0 24 10.7 24 24l0 80c0 13.3-10.7 24-24 24s-24-10.7-24-24l0-12.7c-25.5 22.8-59.1 36.7-96 36.7c-59.1 0-109.8-35.6-132-86.4zM376 192l72 0 0 6.6c-10.6 3-20.8 7-30.5 11.8c-10.2-11.3-25-18.4-41.5-18.4z"/></svg>]]>
 <g id="Notes">
  <rect height="2200" id="artboard" style="fill:white;opacity:1" width="3300" x="0" y="0"/>
  <line id="" style="fill:none;stroke:black;opacity:1;stroke-width:0.5;" x1="263" x2="3036" y1="292" y2="292"/>
  <text id="reftext1" style="stroke:none;fill:black;font-family:-apple-system,&quot;SF Pro Display&quot;,&quot;SF Pro Text&quot;,Helvetica,sans-serif;font-weight:bold;" transform="matrix(1 0 0 1 263 322)">Weight/Scale Variations</text>
  <text id="reftext2" style="stroke:none;fill:black;font-family:-apple-system,&quot;SF Pro Display&quot;,&quot;SF Pro Text&quot;,Helvetica,sans-serif;text-anchor:middle;" transform="matrix(1 0 0 1 559.711 322)">Ultralight</text>
  <text style="stroke:none;fill:black;font-family:-apple-system,&quot;SF Pro Display&quot;,&quot;SF Pro Text&quot;,Helvetica,sans-serif;text-anchor:middle;" transform="matrix(1 0 0 1 856.422 322)">Thin</text>
  <text style="stroke:none;fill:black;font-family:-apple-system,&quot;SF Pro Display&quot;,&quot;SF Pro Text&quot;,Helvetica,sans-serif;text-anchor:middle;" transform="matrix(1 0 0 1 1153.13 322)">Light</text>
  <text style="stroke:none;fill:black;font-family:-apple-system,&quot;SF Pro Display&quot;,&quot;SF Pro Text&quot;,Helvetica,sans-serif;text-anchor:middle;" transform="matrix(1 0 0 1 1449.84 322)">Regular</text>
  <text style="stroke:none;fill:black;font-family:-apple-system,&quot;SF Pro Display&quot;,&quot;SF Pro Text&quot;,Helvetica,sans-serif;text-anchor:middle;" transform="matrix(1 0 0 1 1746.56 322)">Medium</text>
  <text style="stroke:none;fill:black;font-family:-apple-system,&quot;SF Pro Display&quot;,&quot;SF Pro Text&quot;,Helvetica,sans-serif;text-anchor:middle;" transform="matrix(1 0 0 1 2043.27 322)">Semibold</text>
  <text style="stroke:none;fill:black;font-family:-apple-system,&quot;SF Pro Display&quot;,&quot;SF Pro Text&quot;,Helvetica,sans-serif;text-anchor:middle;" transform="matrix(1 0 0 1 2339.98 322)">Bold</text>
  <text style="stroke:none;fill:black;font-family:-apple-system,&quot;SF Pro Display&quot;,&quot;SF Pro Text&quot;,Helvetica,sans-serif;text-anchor:middle;" transform="matrix(1 0 0 1 2636.69 322)">Heavy</text>
  <text style="stroke:none;fill:black;font-family:-apple-system,&quot;SF Pro Display&quot;,&quot;SF Pro Text&quot;,Helvetica,sans-serif;text-anchor:middle;" transform="matrix(1 0 0 1 2933.4 322)">Black</text>
  <line id="" style="fill:none;stroke:black;opacity:1;stroke-width:0.5;" x1="263" x2="3036" y1="1903" y2="1903"/>
  <g id="" transform="matrix(1 0 0 1 263 1933)">
   <path d="M9.24805 0.830078C13.5547 0.830078 17.1387-2.74414 17.1387-7.05078C17.1387-11.3574 13.5449-14.9316 9.23828-14.9316C4.94141-14.9316 1.36719-11.3574 1.36719-7.05078C1.36719-2.74414 4.95117 0.830078 9.24805 0.830078ZM9.24805-0.654297C5.70312-0.654297 2.87109-3.49609 2.87109-7.05078C2.87109-10.6055 5.69336-13.4473 9.23828-13.4473C12.793-13.4473 15.6348-10.6055 15.6445-7.05078C15.6543-3.49609 12.8027-0.654297 9.24805-0.654297ZM6.39648-6.31836L8.50586-6.31836L8.50586-4.19922C8.50586-3.75977 8.79883-3.45703 9.22852-3.45703C9.67773-3.45703 9.9707-3.75977 9.9707-4.19922L9.9707-6.31836L12.0996-6.31836C12.5391-6.31836 12.8418-6.61133 12.8418-7.04102C12.8418-7.48047 12.5391-7.7832 12.0996-7.7832L9.9707-7.7832L9.9707-9.89258C9.9707-10.3418 9.67773-10.6445 9.22852-10.6445C8.79883-10.6445 8.50586-10.3418 8.50586-9.89258L8.50586-7.7832L6.39648-7.7832C5.94727-7.7832 5.64453-7.48047 5.64453-7.04102C5.64453-6.61133 5.94727-6.31836 6.39648-6.31836Z"/>
  </g>
  <g id="" transform="matrix(1 0 0 1 281.506 1933)">
   <path d="M11.709 2.91016C17.1582 2.91016 21.6699-1.61133 21.6699-7.05078C21.6699-12.5 17.1484-17.0117 11.6992-17.0117C6.25977-17.0117 1.74805-12.5 1.74805-7.05078C1.74805-1.61133 6.26953 2.91016 11.709 2.91016ZM11.709 1.25C7.09961 1.25 3.41797-2.44141 3.41797-7.05078C3.41797-11.6602 7.08984-15.3516 11.6992-15.3516C16.3086-15.3516 20-11.6602 20.0098-7.05078C20.0195-2.44141 16.3184 1.25 11.709 1.25ZM7.98828-6.23047L10.8789-6.23047L10.8789-3.32031C10.8789-2.83203 11.2109-2.5 11.6895-2.5C12.1777-2.5 12.5195-2.83203 12.5195-3.32031L12.5195-6.23047L15.4297-6.23047C15.918-6.23047 16.25-6.5625 16.25-7.04102C16.25-7.5293 15.918-7.87109 15.4297-7.87109L12.5195-7.87109L12.5195-10.7617C12.5195-11.2695 12.1777-11.6016 11.6895-11.6016C11.2109-11.6016 10.8789-11.2598 10.8789-10.7617L10.8789-7.87109L7.98828-7.87109C7.48047-7.87109 7.14844-7.5293 7.14844-7.04102C7.14844-6.5625 7.49023-6.23047 7.98828-6.23047Z"/>
  </g>
  <g id="" transform="matrix(1 0 0 1 304.924 1933)">
   <path d="M14.9707 5.66406C21.9336 5.66406 27.6953-0.0976562 27.6953-7.05078C27.6953-14.0137 21.9238-19.7754 14.9609-19.7754C8.00781-19.7754 2.25586-14.0137 2.25586-7.05078C2.25586-0.0976562 8.01758 5.66406 14.9707 5.66406ZM14.9707 3.84766C8.93555 3.84766 4.08203-1.01562 4.08203-7.05078C4.08203-13.0957 8.92578-17.9492 14.9609-17.9492C21.0059-17.9492 25.8594-13.0957 25.8691-7.05078C25.8789-1.01562 21.0156 3.84766 14.9707 3.84766ZM10.0586-6.14258L14.0625-6.14258L14.0625-2.12891C14.0625-1.5918 14.4336-1.2207 14.9512-1.2207C15.4883-1.2207 15.8594-1.5918 15.8594-2.12891L15.8594-6.14258L19.8828-6.14258C20.4102-6.14258 20.791-6.51367 20.791-7.03125C20.791-7.56836 20.4199-7.94922 19.8828-7.94922L15.8594-7.94922L15.8594-11.9531C15.8594-12.5098 15.4883-12.8809 14.9512-12.8809C14.4336-12.8809 14.0625-12.5 14.0625-11.9531L14.0625-7.94922L10.0586-7.94922C9.50195-7.94922 9.13086-7.56836 9.13086-7.03125C9.13086-6.51367 9.51172-6.14258 10.0586-6.14258Z"/>
  </g>
  <text style="stroke:none;fill:black;font-family:-apple-system,&quot;SF Pro Display&quot;,&quot;SF Pro Text&quot;,Helvetica,sans-serif;font-weight:bold;" transform="matrix(1 0 0 1 263 1953)">Design Variations</text>
  <text style="stroke:none;fill:black;font-family:-apple-system,&quot;SF Pro Display&quot;,&quot;SF Pro Text&quot;,Helvetica,sans-serif;" transform="matrix(1 0 0 1 263 1971)">Symbols are supported in up to nine weights and three scales.</text>
  <text style="stroke:none;fill:black;font-family:-apple-system,&quot;SF Pro Display&quot;,&quot;SF Pro Text&quot;,Helvetica,sans-serif;" transform="matrix(1 0 0 1 263 1989)">For optimal layout with text and other symbols, vertically align</text>
  <text style="stroke:none;fill:black;font-family:-apple-system,&quot;SF Pro Display&quot;,&quot;SF Pro Text&quot;,Helvetica,sans-serif;" transform="matrix(1 0 0 1 263 2007)">symbols with the adjacent text.</text>
  <line id="" style="fill:none;stroke:#00AEEF;stroke-width:0.5;opacity:1.0;" x1="776" x2="776" y1="1919" y2="1933"/>
  <g id="" transform="matrix(1 0 0 1 776 1933)">
   <path d="M3.31055 0.126953C3.82812 0.126953 4.08203-0.0683594 4.26758-0.605469L5.52734-4.0625L11.2891-4.0625L12.5488-0.605469C12.7344-0.0683594 12.9883 0.126953 13.4961 0.126953C14.0137 0.126953 14.3457-0.185547 14.3457-0.673828C14.3457-0.839844 14.3164-0.986328 14.2383-1.20117L9.6582-13.3887C9.43359-13.9941 9.0332-14.2871 8.4082-14.2871C7.80273-14.2871 7.39258-13.9941 7.17773-13.3984L2.59766-1.19141C2.51953-0.976562 2.49023-0.830078 2.49023-0.664062C2.49023-0.175781 2.80273 0.126953 3.31055 0.126953ZM6.00586-5.53711L8.37891-12.1094L8.42773-12.1094L10.8008-5.53711Z"/>
  </g>
  <line id="" style="fill:none;stroke:#00AEEF;stroke-width:0.5;opacity:1.0;" x1="792.836" x2="792.836" y1="1919" y2="1933"/>
  <text style="stroke:none;fill:black;font-family:-apple-system,&quot;SF Pro Display&quot;,&quot;SF Pro Text&quot;,Helvetica,sans-serif;font-weight:bold;" transform="matrix(1 0 0 1 776 1953)">Margins</text>
  <text style="stroke:none;fill:black;font-family:-apple-system,&quot;SF Pro Display&quot;,&quot;SF Pro Text&quot;,Helvetica,sans-serif;" transform="matrix(1 0 0 1 776 1971)">Leading and trailing margins on the left and right side of each symbol</text>
  <text style="stroke:none;fill:black;font-family:-apple-system,&quot;SF Pro Display&quot;,&quot;SF Pro Text&quot;,Helvetica,sans-serif;" transform="matrix(1 0 0 1 776 1989)">can be adjusted by modifying the x-location of the margin guidelines.</text>
  <text style="stroke:none;fill:black;font-family:-apple-system,&quot;SF Pro Display&quot;,&quot;SF Pro Text&quot;,Helvetica,sans-serif;" transform="matrix(1 0 0 1 776 2007)">Modifications are automatically applied proportionally to all</text>
  <text style="stroke:none;fill:black;font-family:-apple-system,&quot;SF Pro Display&quot;,&quot;SF Pro Text&quot;,Helvetica,sans-serif;" transform="matrix(1 0 0 1 776 2025)">scales and weights.</text>
  <g id="" transform="matrix(1 0 0 1 1289 1933)">
   <path d="M2.8418 1.86523L4.54102 3.57422C5.40039 4.44336 6.38672 4.38477 7.31445 3.35938L17.4902-7.85156C17.7539-7.76367 18.0273-7.7832 18.3398-7.8418L19.4043-8.03711L20.0684-7.36328L20.0293-6.80664C19.9902-6.30859 20.1172-5.92773 20.6055-5.44922L21.3672-4.70703C21.8457-4.22852 22.4609-4.19922 22.9297-4.66797L25.8398-7.58789C26.3086-8.05664 26.2891-8.65234 25.8105-9.13086L25.0391-9.89258C24.5605-10.3711 24.1895-10.5273 23.7109-10.4883L23.1348-10.4395L22.4902-11.0742L22.7344-12.1973C22.8613-12.7637 22.7051-13.2031 22.1191-13.7891L19.9219-15.9766C16.582-19.2969 12.1484-19.2188 9.25781-16.3281C8.83789-15.918 8.80859-15.3418 9.04297-14.9512C9.27734-14.5898 9.73633-14.3555 10.3809-14.5215C11.8457-14.8633 13.3691-14.9219 14.7949-13.9844L14.209-12.5293C14.0137-12.0508 13.9844-11.6504 14.1113-11.2891L3.04688-0.898438C2.06055 0.0195312 1.98242 0.996094 2.8418 1.86523ZM10.752-15.957C13.1836-17.7344 16.4746-17.4316 18.7012-15.2051L21.1328-12.793C21.3672-12.5586 21.4062-12.373 21.3379-12.0312L21.0156-10.5469L22.5195-9.0625L23.5059-9.12109C23.7598-9.13086 23.8379-9.11133 24.0332-8.91602L24.6094-8.33984L22.168-5.89844L21.5918-6.47461C21.3965-6.66992 21.3672-6.74805 21.377-7.01172L21.4453-7.98828L19.9512-9.47266L18.4277-9.21875C18.1055-9.15039 17.959-9.17969 17.7148-9.41406L15.7129-11.416C15.459-11.6504 15.4297-11.8164 15.5859-12.1875L16.4648-14.2773C14.9023-15.7324 12.8711-16.3574 10.8398-15.7617C10.6836-15.7227 10.625-15.8496 10.752-15.957ZM5.27344 2.30469L4.10156 1.14258C3.63281 0.683594 3.74023 0.341797 4.14062-0.0195312L14.9512-10.1953L16.416-8.71094L6.42578 2.27539C6.07422 2.67578 5.74219 2.77344 5.27344 2.30469Z"/>
  </g>
  <text style="stroke:none;fill:black;font-family:-apple-system,&quot;SF Pro Display&quot;,&quot;SF Pro Text&quot;,Helvetica,sans-serif;font-weight:bold;" transform="matrix(1 0 0 1 1289 1953)">Exporting</text>
  <text style="stroke:none;fill:black;font-family:-apple-system,&quot;SF Pro Display&quot;,&quot;SF Pro Text&quot;,Helvetica,sans-serif;" transform="matrix(1 0 0 1 1289 1971)">Symbols should be outlined when exporting to ensure the</text>
  <text style="stroke:none;fill:black;font-family:-apple-system,&quot;SF Pro Display&quot;,&quot;SF Pro Text&quot;,Helvetica,sans-serif;" transform="matrix(1 0 0 1 1289 1989)">design is preserved when submitting to Xcode.</text>
  <text id="template-version" style="stroke:none;fill:black;font-family:-apple-system,&quot;SF Pro Display&quot;,&quot;SF Pro Text&quot;,Helvetica,sans-serif;text-anchor:end;" transform="matrix(1 0 0 1 3036 1933)">Template v.2.0</text>
  <text style="stroke:none;fill:black;font-family:-apple-system,&quot;SF Pro Display&quot;,&quot;SF Pro Text&quot;,Helvetica,sans-serif;text-anchor:end;" transform="matrix(1 0 0 1 3036 1951)">Requires Xcode 12 or greater</text>
  <text style="stroke:none;fill:black;font-family:-apple-system,&quot;SF Pro Display&quot;,&quot;SF Pro Text&quot;,Helvetica,sans-serif;" transform="matrix(1 0 0 1 263 726)">Small</text>
  <text style="stroke:none;fill:black;font-family:-apple-system,&quot;SF Pro Display&quot;,&quot;SF Pro Text&quot;,Helvetica,sans-serif;" transform="matrix(1 0 0 1 263 1156)">Medium</text>
  <text style="stroke:none;fill:black;font-family:-apple-system,&quot;SF Pro Display&quot;,&quot;SF Pro Text&quot;,Helvetica,sans-serif;" transform="matrix(1 0 0 1 263 1586)">Large</text>
 </g>
 <g id="Guides">
  <g id="H-reference" style="fill:#27AAE1;stroke:none;" transform="matrix(1 0 0 1 339 696)">
   <path d="M0.976562 0L3.66211 0L12.9883-24.4629L45.752-24.4629L55.127 0L57.7637 0L30.6152-70.459L28.125-70.459ZM29.3457-67.1387L29.4434-67.1387L44.873-26.709L13.8672-26.709Z"/>
  </g>
  <line id="Baseline-S" style="fill:none;stroke:#27AAE1;opacity:1;stroke-width:0.5;" x1="263" x2="3036" y1="696" y2="696"/>
  <line id="Capline-S" style="fill:none;stroke:#27AAE1;opacity:1;stroke-width:0.5;" x1="263" x2="3036" y1="625.541" y2="625.541"/>
  <g id="H-reference" style="fill:#27AAE1;stroke:none;" transform="matrix(1 0 0 1 339 1126)">
   <path d="M0.976562 0L3.66211 0L12.9883-24.4629L45.752-24.4629L55.127 0L57.7637 0L30.6152-70.459L28.125-70.459ZM29.3457-67.1387L29.4434-67.1387L44.873-26.709L13.8672-26.709Z"/>
  </g>
  <line id="Baseline-M" style="fill:none;stroke:#27AAE1;opacity:1;stroke-width:0.5;" x1="263" x2="3036" y1="1126" y2="1126"/>
  <line id="Capline-M" style="fill:none;stroke:#27AAE1;opacity:1;stroke-width:0.5;" x1="263" x2="3036" y1="1055.54" y2="1055.54"/>
  <g id="H-reference" style="fill:#27AAE1;stroke:none;" transform="matrix(1 0 0 1 339 1556)">
   <path d="M0.976562 0L3.66211 0L12.9883-24.4629L45.752-24.4629L55.127 0L57.7637 0L30.6152-70.459L28.125-70.459ZM29.3457-67.1387L29.4434-67.1387L44.873-26.709L13.8672-26.709Z"/>
  </g>
  <line id="Baseline-L" style="fill:none;stroke:#27AAE1;opacity:1;stroke-width:0.5;" x1="263" x2="3036" y1="1556" y2="1556"/>
  <line id="Capline-L" style="fill:none;stroke:#27AAE1;opacity:1;stroke-width:0.5;" x1="263" x2="3036" y1="1485.54" y2="1485.54"/>
  <line id="left-margin" x1="1407.0925244140624" x2="1407.0925244140624" y1="1030.79" y2="1150.12" style="fill:none;stroke:#00AEEF;stroke-width:0.5;opacity:1.0;"/>
  <line id="right-margin" x1="1495.1674755859374" x2="1495.1674755859374" y1="1030.79" y2="1150.12" style="fill:none;stroke:#00AEEF;stroke-width:0.5;opacity:1.0;"/>
 </g>
 <g id="Symbols">
  <g id="Black-L" transform="matrix(1.0,0.0,0.0,1.0,2877.8716564941406,1475.3233447265625)">  <path stroke-linecap="butt" stroke-dasharray="none" stroke-width="1px" stroke-opacity="1" fill-rule="nonzero" stroke-miterlimit="4" fill-opacity="1" fill="#000000" stroke-linejoin="miter" stroke="none" d="M0,19.883C0,15.178,3.817,11.362,8.521,11.362L17.043,11.362L17.043,5.681C17.043,2.539,19.581,0,22.723,0C25.866,0,28.404,2.539,28.404,5.681L28.404,11.362L51.128,11.362L51.128,5.681C51.128,2.539,53.666,0,56.808,0C59.951,0,62.489,2.539,62.489,5.681L62.489,11.362L71.01,11.362C75.715,11.362,79.532,15.178,79.532,19.883L79.532,28.404L0,28.404L0,19.883ZM0,34.085L66.75,34.085C61.282,34.085,56.862,38.488,56.808,43.938L56.808,65.472C56.862,75.981,62.099,85.266,70.087,90.893L8.521,90.893C3.817,90.893,0,87.077,0,82.372L0,34.085ZM62.489,44.026C62.489,41.665,64.389,39.766,66.75,39.766C69.111,39.766,71.01,41.665,71.01,44.026L71.01,46.281C75.537,42.233,81.502,39.766,88.053,39.766C98.545,39.766,107.545,46.086,111.486,55.104C112.427,57.252,111.433,59.773,109.285,60.714C107.137,61.655,104.616,60.661,103.675,58.513C101.048,52.494,95.03,48.287,88.053,48.287C82.993,48.287,78.467,50.471,75.342,53.968L80.952,53.968C83.313,53.968,85.213,55.867,85.213,58.229C85.213,60.59,83.313,62.489,80.952,62.489L66.75,62.489C64.389,62.489,62.489,60.59,62.489,58.229L62.489,44.026ZM64.619,75.555C63.679,73.407,64.673,70.886,66.821,69.945C68.969,69.004,71.49,69.999,72.431,72.147C75.058,78.165,81.076,82.372,88.053,82.372C93.112,82.372,97.639,80.189,100.764,76.691L95.154,76.691C92.793,76.691,90.893,74.792,90.893,72.431C90.893,70.07,92.793,68.17,95.154,68.17L109.356,68.17C111.717,68.17,113.617,70.07,113.617,72.431L113.617,86.633C113.617,88.994,111.717,90.893,109.356,90.893C106.995,90.893,105.095,88.994,105.095,86.633L105.095,84.378C100.569,88.426,94.604,90.893,88.053,90.893C77.561,90.893,68.561,84.573,64.619,75.555ZM66.75,34.085L79.532,34.085L79.532,35.257C77.65,35.789,75.839,36.499,74.117,37.351C72.306,35.345,69.679,34.085,66.75,34.085ZM66.75,34.085"/>
</g>
  <g id="Heavy-L" transform="matrix(1.0,0.0,0.0,1.0,2581.1616564941405,1475.3233447265625)">  <path stroke="none" fill="#000000" stroke-linejoin="miter" stroke-width="1px" fill-rule="nonzero" stroke-linecap="butt" stroke-opacity="1" stroke-miterlimit="4" fill-opacity="1" stroke-dasharray="none" d="M0,19.883C0,15.178,3.817,11.362,8.521,11.362L17.043,11.362L17.043,5.681C17.043,2.539,19.581,0,22.723,0C25.866,0,28.404,2.539,28.404,5.681L28.404,11.362L51.128,11.362L51.128,5.681C51.128,2.539,53.666,0,56.808,0C59.951,0,62.489,2.539,62.489,5.681L62.489,11.362L71.01,11.362C75.715,11.362,79.532,15.178,79.532,19.883L79.532,28.404L0,28.404L0,19.883ZM0,34.085L66.75,34.085C61.282,34.085,56.862,38.488,56.808,43.938L56.808,65.472C56.862,75.981,62.099,85.266,70.087,90.893L8.521,90.893C3.817,90.893,0,87.077,0,82.372L0,34.085ZM62.489,44.026C62.489,41.665,64.389,39.766,66.75,39.766C69.111,39.766,71.01,41.665,71.01,44.026L71.01,46.281C75.537,42.233,81.502,39.766,88.053,39.766C98.545,39.766,107.545,46.086,111.486,55.104C112.427,57.252,111.433,59.773,109.285,60.714C107.137,61.655,104.616,60.661,103.675,58.513C101.048,52.494,95.03,48.287,88.053,48.287C82.993,48.287,78.467,50.471,75.342,53.968L80.952,53.968C83.313,53.968,85.213,55.867,85.213,58.229C85.213,60.59,83.313,62.489,80.952,62.489L66.75,62.489C64.389,62.489,62.489,60.59,62.489,58.229L62.489,44.026ZM64.619,75.555C63.679,73.407,64.673,70.886,66.821,69.945C68.969,69.004,71.49,69.999,72.431,72.147C75.058,78.165,81.076,82.372,88.053,82.372C93.112,82.372,97.639,80.189,100.764,76.691L95.154,76.691C92.793,76.691,90.893,74.792,90.893,72.431C90.893,70.07,92.793,68.17,95.154,68.17L109.356,68.17C111.717,68.17,113.617,70.07,113.617,72.431L113.617,86.633C113.617,88.994,111.717,90.893,109.356,90.893C106.995,90.893,105.095,88.994,105.095,86.633L105.095,84.378C100.569,88.426,94.604,90.893,88.053,90.893C77.561,90.893,68.561,84.573,64.619,75.555ZM66.75,34.085L79.532,34.085L79.532,35.257C77.65,35.789,75.839,36.499,74.117,37.351C72.306,35.345,69.679,34.085,66.75,34.085ZM66.75,34.085"/>
</g>
  <g id="Bold-L" transform="matrix(1.0,0.0,0.0,1.0,2284.4516564941405,1475.3233447265625)">  <path stroke="none" stroke-width="1px" stroke-linejoin="miter" stroke-linecap="butt" fill="#000000" stroke-dasharray="none" fill-opacity="1" stroke-opacity="1" fill-rule="nonzero" stroke-miterlimit="4" d="M0,19.883C0,15.178,3.817,11.362,8.521,11.362L17.043,11.362L17.043,5.681C17.043,2.539,19.581,0,22.723,0C25.866,0,28.404,2.539,28.404,5.681L28.404,11.362L51.128,11.362L51.128,5.681C51.128,2.539,53.666,0,56.808,0C59.951,0,62.489,2.539,62.489,5.681L62.489,11.362L71.01,11.362C75.715,11.362,79.532,15.178,79.532,19.883L79.532,28.404L0,28.404L0,19.883ZM0,34.085L66.75,34.085C61.282,34.085,56.862,38.488,56.808,43.938L56.808,65.472C56.862,75.981,62.099,85.266,70.087,90.893L8.521,90.893C3.817,90.893,0,87.077,0,82.372L0,34.085ZM62.489,44.026C62.489,41.665,64.389,39.766,66.75,39.766C69.111,39.766,71.01,41.665,71.01,44.026L71.01,46.281C75.537,42.233,81.502,39.766,88.053,39.766C98.545,39.766,107.545,46.086,111.486,55.104C112.427,57.252,111.433,59.773,109.285,60.714C107.137,61.655,104.616,60.661,103.675,58.513C101.048,52.494,95.03,48.287,88.053,48.287C82.993,48.287,78.467,50.471,75.342,53.968L80.952,53.968C83.313,53.968,85.213,55.867,85.213,58.229C85.213,60.59,83.313,62.489,80.952,62.489L66.75,62.489C64.389,62.489,62.489,60.59,62.489,58.229L62.489,44.026ZM64.619,75.555C63.679,73.407,64.673,70.886,66.821,69.945C68.969,69.004,71.49,69.999,72.431,72.147C75.058,78.165,81.076,82.372,88.053,82.372C93.112,82.372,97.639,80.189,100.764,76.691L95.154,76.691C92.793,76.691,90.893,74.792,90.893,72.431C90.893,70.07,92.793,68.17,95.154,68.17L109.356,68.17C111.717,68.17,113.617,70.07,113.617,72.431L113.617,86.633C113.617,88.994,111.717,90.893,109.356,90.893C106.995,90.893,105.095,88.994,105.095,86.633L105.095,84.378C100.569,88.426,94.604,90.893,88.053,90.893C77.561,90.893,68.561,84.573,64.619,75.555ZM66.75,34.085L79.532,34.085L79.532,35.257C77.65,35.789,75.839,36.499,74.117,37.351C72.306,35.345,69.679,34.085,66.75,34.085ZM66.75,34.085"/>
</g>
  <g id="Semibold-L" transform="matrix(1.0,0.0,0.0,1.0,1987.7416564941407,1475.3233447265625)">  <path stroke="none" stroke-dasharray="none" stroke-opacity="1" stroke-linecap="butt" fill-opacity="1" stroke-width="1px" stroke-linejoin="miter" stroke-miterlimit="4" fill-rule="nonzero" fill="#000000" d="M0,19.883C0,15.178,3.817,11.362,8.521,11.362L17.043,11.362L17.043,5.681C17.043,2.539,19.581,0,22.723,0C25.866,0,28.404,2.539,28.404,5.681L28.404,11.362L51.128,11.362L51.128,5.681C51.128,2.539,53.666,0,56.808,0C59.951,0,62.489,2.539,62.489,5.681L62.489,11.362L71.01,11.362C75.715,11.362,79.532,15.178,79.532,19.883L79.532,28.404L0,28.404L0,19.883ZM0,34.085L66.75,34.085C61.282,34.085,56.862,38.488,56.808,43.938L56.808,65.472C56.862,75.981,62.099,85.266,70.087,90.893L8.521,90.893C3.817,90.893,0,87.077,0,82.372L0,34.085ZM62.489,44.026C62.489,41.665,64.389,39.766,66.75,39.766C69.111,39.766,71.01,41.665,71.01,44.026L71.01,46.281C75.537,42.233,81.502,39.766,88.053,39.766C98.545,39.766,107.545,46.086,111.486,55.104C112.427,57.252,111.433,59.773,109.285,60.714C107.137,61.655,104.616,60.661,103.675,58.513C101.048,52.494,95.03,48.287,88.053,48.287C82.993,48.287,78.467,50.471,75.342,53.968L80.952,53.968C83.313,53.968,85.213,55.867,85.213,58.229C85.213,60.59,83.313,62.489,80.952,62.489L66.75,62.489C64.389,62.489,62.489,60.59,62.489,58.229L62.489,44.026ZM64.619,75.555C63.679,73.407,64.673,70.886,66.821,69.945C68.969,69.004,71.49,69.999,72.431,72.147C75.058,78.165,81.076,82.372,88.053,82.372C93.112,82.372,97.639,80.189,100.764,76.691L95.154,76.691C92.793,76.691,90.893,74.792,90.893,72.431C90.893,70.07,92.793,68.17,95.154,68.17L109.356,68.17C111.717,68.17,113.617,70.07,113.617,72.431L113.617,86.633C113.617,88.994,111.717,90.893,109.356,90.893C106.995,90.893,105.095,88.994,105.095,86.633L105.095,84.378C100.569,88.426,94.604,90.893,88.053,90.893C77.561,90.893,68.561,84.573,64.619,75.555ZM66.75,34.085L79.532,34.085L79.532,35.257C77.65,35.789,75.839,36.499,74.117,37.351C72.306,35.345,69.679,34.085,66.75,34.085ZM66.75,34.085"/>
</g>
  <g id="Medium-L" transform="matrix(1.0,0.0,0.0,1.0,1691.0316564941406,1475.3233447265625)">  <path stroke-opacity="1" stroke-dasharray="none" stroke-width="1px" fill-rule="nonzero" stroke-miterlimit="4" fill="#000000" stroke-linejoin="miter" fill-opacity="1" stroke="none" stroke-linecap="butt" d="M0,19.883C0,15.178,3.817,11.362,8.521,11.362L17.043,11.362L17.043,5.681C17.043,2.539,19.581,0,22.723,0C25.866,0,28.404,2.539,28.404,5.681L28.404,11.362L51.128,11.362L51.128,5.681C51.128,2.539,53.666,0,56.808,0C59.951,0,62.489,2.539,62.489,5.681L62.489,11.362L71.01,11.362C75.715,11.362,79.532,15.178,79.532,19.883L79.532,28.404L0,28.404L0,19.883ZM0,34.085L66.75,34.085C61.282,34.085,56.862,38.488,56.808,43.938L56.808,65.472C56.862,75.981,62.099,85.266,70.087,90.893L8.521,90.893C3.817,90.893,0,87.077,0,82.372L0,34.085ZM62.489,44.026C62.489,41.665,64.389,39.766,66.75,39.766C69.111,39.766,71.01,41.665,71.01,44.026L71.01,46.281C75.537,42.233,81.502,39.766,88.053,39.766C98.545,39.766,107.545,46.086,111.486,55.104C112.427,57.252,111.433,59.773,109.285,60.714C107.137,61.655,104.616,60.661,103.675,58.513C101.048,52.494,95.03,48.287,88.053,48.287C82.993,48.287,78.467,50.471,75.342,53.968L80.952,53.968C83.313,53.968,85.213,55.867,85.213,58.229C85.213,60.59,83.313,62.489,80.952,62.489L66.75,62.489C64.389,62.489,62.489,60.59,62.489,58.229L62.489,44.026ZM64.619,75.555C63.679,73.407,64.673,70.886,66.821,69.945C68.969,69.004,71.49,69.999,72.431,72.147C75.058,78.165,81.076,82.372,88.053,82.372C93.112,82.372,97.639,80.189,100.764,76.691L95.154,76.691C92.793,76.691,90.893,74.792,90.893,72.431C90.893,70.07,92.793,68.17,95.154,68.17L109.356,68.17C111.717,68.17,113.617,70.07,113.617,72.431L113.617,86.633C113.617,88.994,111.717,90.893,109.356,90.893C106.995,90.893,105.095,88.994,105.095,86.633L105.095,84.378C100.569,88.426,94.604,90.893,88.053,90.893C77.561,90.893,68.561,84.573,64.619,75.555ZM66.75,34.085L79.532,34.085L79.532,35.257C77.65,35.789,75.839,36.499,74.117,37.351C72.306,35.345,69.679,34.085,66.75,34.085ZM66.75,34.085"/>
</g>
  <g id="Regular-L" transform="matrix(1.0,0.0,0.0,1.0,1394.3216564941406,1475.3233447265625)">  <path stroke-linejoin="miter" stroke-opacity="1" fill="#000000" stroke-width="1px" stroke-dasharray="none" fill-opacity="1" stroke="none" fill-rule="nonzero" stroke-linecap="butt" stroke-miterlimit="4" d="M0,19.883C0,15.178,3.817,11.362,8.521,11.362L17.043,11.362L17.043,5.681C17.043,2.539,19.581,0,22.723,0C25.866,0,28.404,2.539,28.404,5.681L28.404,11.362L51.128,11.362L51.128,5.681C51.128,2.539,53.666,0,56.808,0C59.951,0,62.489,2.539,62.489,5.681L62.489,11.362L71.01,11.362C75.715,11.362,79.532,15.178,79.532,19.883L79.532,28.404L0,28.404L0,19.883ZM0,34.085L66.75,34.085C61.282,34.085,56.862,38.488,56.808,43.938L56.808,65.472C56.862,75.981,62.099,85.266,70.087,90.893L8.521,90.893C3.817,90.893,0,87.077,0,82.372L0,34.085ZM62.489,44.026C62.489,41.665,64.389,39.766,66.75,39.766C69.111,39.766,71.01,41.665,71.01,44.026L71.01,46.281C75.537,42.233,81.502,39.766,88.053,39.766C98.545,39.766,107.545,46.086,111.486,55.104C112.427,57.252,111.433,59.773,109.285,60.714C107.137,61.655,104.616,60.661,103.675,58.513C101.048,52.494,95.03,48.287,88.053,48.287C82.993,48.287,78.467,50.471,75.342,53.968L80.952,53.968C83.313,53.968,85.213,55.867,85.213,58.229C85.213,60.59,83.313,62.489,80.952,62.489L66.75,62.489C64.389,62.489,62.489,60.59,62.489,58.229L62.489,44.026ZM64.619,75.555C63.679,73.407,64.673,70.886,66.821,69.945C68.969,69.004,71.49,69.999,72.431,72.147C75.058,78.165,81.076,82.372,88.053,82.372C93.112,82.372,97.639,80.189,100.764,76.691L95.154,76.691C92.793,76.691,90.893,74.792,90.893,72.431C90.893,70.07,92.793,68.17,95.154,68.17L109.356,68.17C111.717,68.17,113.617,70.07,113.617,72.431L113.617,86.633C113.617,88.994,111.717,90.893,109.356,90.893C106.995,90.893,105.095,88.994,105.095,86.633L105.095,84.378C100.569,88.426,94.604,90.893,88.053,90.893C77.561,90.893,68.561,84.573,64.619,75.555ZM66.75,34.085L79.532,34.085L79.532,35.257C77.65,35.789,75.839,36.499,74.117,37.351C72.306,35.345,69.679,34.085,66.75,34.085ZM66.75,34.085"/>
</g>
  <g id="Light-L" transform="matrix(1.0,0.0,0.0,1.0,1097.6116564941408,1475.3233447265625)">  <path stroke="none" stroke-width="1px" fill="#000000" fill-opacity="1" stroke-linejoin="miter" fill-rule="nonzero" stroke-dasharray="none" stroke-miterlimit="4" stroke-opacity="1" stroke-linecap="butt" d="M0,19.883C0,15.178,3.817,11.362,8.521,11.362L17.043,11.362L17.043,5.681C17.043,2.539,19.581,0,22.723,0C25.866,0,28.404,2.539,28.404,5.681L28.404,11.362L51.128,11.362L51.128,5.681C51.128,2.539,53.666,0,56.808,0C59.951,0,62.489,2.539,62.489,5.681L62.489,11.362L71.01,11.362C75.715,11.362,79.532,15.178,79.532,19.883L79.532,28.404L0,28.404L0,19.883ZM0,34.085L66.75,34.085C61.282,34.085,56.862,38.488,56.808,43.938L56.808,65.472C56.862,75.981,62.099,85.266,70.087,90.893L8.521,90.893C3.817,90.893,0,87.077,0,82.372L0,34.085ZM62.489,44.026C62.489,41.665,64.389,39.766,66.75,39.766C69.111,39.766,71.01,41.665,71.01,44.026L71.01,46.281C75.537,42.233,81.502,39.766,88.053,39.766C98.545,39.766,107.545,46.086,111.486,55.104C112.427,57.252,111.433,59.773,109.285,60.714C107.137,61.655,104.616,60.661,103.675,58.513C101.048,52.494,95.03,48.287,88.053,48.287C82.993,48.287,78.467,50.471,75.342,53.968L80.952,53.968C83.313,53.968,85.213,55.867,85.213,58.229C85.213,60.59,83.313,62.489,80.952,62.489L66.75,62.489C64.389,62.489,62.489,60.59,62.489,58.229L62.489,44.026ZM64.619,75.555C63.679,73.407,64.673,70.886,66.821,69.945C68.969,69.004,71.49,69.999,72.431,72.147C75.058,78.165,81.076,82.372,88.053,82.372C93.112,82.372,97.639,80.189,100.764,76.691L95.154,76.691C92.793,76.691,90.893,74.792,90.893,72.431C90.893,70.07,92.793,68.17,95.154,68.17L109.356,68.17C111.717,68.17,113.617,70.07,113.617,72.431L113.617,86.633C113.617,88.994,111.717,90.893,109.356,90.893C106.995,90.893,105.095,88.994,105.095,86.633L105.095,84.378C100.569,88.426,94.604,90.893,88.053,90.893C77.561,90.893,68.561,84.573,64.619,75.555ZM66.75,34.085L79.532,34.085L79.532,35.257C77.65,35.789,75.839,36.499,74.117,37.351C72.306,35.345,69.679,34.085,66.75,34.085ZM66.75,34.085"/>
</g>
  <g id="Thin-L" transform="matrix(1.0,0.0,0.0,1.0,800.9016564941406,1475.3233447265625)">  <path stroke-linecap="butt" stroke="none" fill-rule="nonzero" stroke-miterlimit="4" stroke-width="1px" stroke-linejoin="miter" stroke-opacity="1" stroke-dasharray="none" fill="#000000" fill-opacity="1" d="M0,19.883C0,15.178,3.817,11.362,8.521,11.362L17.043,11.362L17.043,5.681C17.043,2.539,19.581,0,22.723,0C25.866,0,28.404,2.539,28.404,5.681L28.404,11.362L51.128,11.362L51.128,5.681C51.128,2.539,53.666,0,56.808,0C59.951,0,62.489,2.539,62.489,5.681L62.489,11.362L71.01,11.362C75.715,11.362,79.532,15.178,79.532,19.883L79.532,28.404L0,28.404L0,19.883ZM0,34.085L66.75,34.085C61.282,34.085,56.862,38.488,56.808,43.938L56.808,65.472C56.862,75.981,62.099,85.266,70.087,90.893L8.521,90.893C3.817,90.893,0,87.077,0,82.372L0,34.085ZM62.489,44.026C62.489,41.665,64.389,39.766,66.75,39.766C69.111,39.766,71.01,41.665,71.01,44.026L71.01,46.281C75.537,42.233,81.502,39.766,88.053,39.766C98.545,39.766,107.545,46.086,111.486,55.104C112.427,57.252,111.433,59.773,109.285,60.714C107.137,61.655,104.616,60.661,103.675,58.513C101.048,52.494,95.03,48.287,88.053,48.287C82.993,48.287,78.467,50.471,75.342,53.968L80.952,53.968C83.313,53.968,85.213,55.867,85.213,58.229C85.213,60.59,83.313,62.489,80.952,62.489L66.75,62.489C64.389,62.489,62.489,60.59,62.489,58.229L62.489,44.026ZM64.619,75.555C63.679,73.407,64.673,70.886,66.821,69.945C68.969,69.004,71.49,69.999,72.431,72.147C75.058,78.165,81.076,82.372,88.053,82.372C93.112,82.372,97.639,80.189,100.764,76.691L95.154,76.691C92.793,76.691,90.893,74.792,90.893,72.431C90.893,70.07,92.793,68.17,95.154,68.17L109.356,68.17C111.717,68.17,113.617,70.07,113.617,72.431L113.617,86.633C113.617,88.994,111.717,90.893,109.356,90.893C106.995,90.893,105.095,88.994,105.095,86.633L105.095,84.378C100.569,88.426,94.604,90.893,88.053,90.893C77.561,90.893,68.561,84.573,64.619,75.555ZM66.75,34.085L79.532,34.085L79.532,35.257C77.65,35.789,75.839,36.499,74.117,37.351C72.306,35.345,69.679,34.085,66.75,34.085ZM66.75,34.085"/>
</g>
  <g id="Ultralight-L" transform="matrix(1.0,0.0,0.0,1.0,504.1916564941406,1475.3233447265625)">  <path stroke-linecap="butt" stroke="none" fill="#000000" stroke-dasharray="none" fill-rule="nonzero" stroke-opacity="1" fill-opacity="1" stroke-miterlimit="4" stroke-linejoin="miter" stroke-width="1px" d="M0,19.883C0,15.178,3.817,11.362,8.521,11.362L17.043,11.362L17.043,5.681C17.043,2.539,19.581,0,22.723,0C25.866,0,28.404,2.539,28.404,5.681L28.404,11.362L51.128,11.362L51.128,5.681C51.128,2.539,53.666,0,56.808,0C59.951,0,62.489,2.539,62.489,5.681L62.489,11.362L71.01,11.362C75.715,11.362,79.532,15.178,79.532,19.883L79.532,28.404L0,28.404L0,19.883ZM0,34.085L66.75,34.085C61.282,34.085,56.862,38.488,56.808,43.938L56.808,65.472C56.862,75.981,62.099,85.266,70.087,90.893L8.521,90.893C3.817,90.893,0,87.077,0,82.372L0,34.085ZM62.489,44.026C62.489,41.665,64.389,39.766,66.75,39.766C69.111,39.766,71.01,41.665,71.01,44.026L71.01,46.281C75.537,42.233,81.502,39.766,88.053,39.766C98.545,39.766,107.545,46.086,111.486,55.104C112.427,57.252,111.433,59.773,109.285,60.714C107.137,61.655,104.616,60.661,103.675,58.513C101.048,52.494,95.03,48.287,88.053,48.287C82.993,48.287,78.467,50.471,75.342,53.968L80.952,53.968C83.313,53.968,85.213,55.867,85.213,58.229C85.213,60.59,83.313,62.489,80.952,62.489L66.75,62.489C64.389,62.489,62.489,60.59,62.489,58.229L62.489,44.026ZM64.619,75.555C63.679,73.407,64.673,70.886,66.821,69.945C68.969,69.004,71.49,69.999,72.431,72.147C75.058,78.165,81.076,82.372,88.053,82.372C93.112,82.372,97.639,80.189,100.764,76.691L95.154,76.691C92.793,76.691,90.893,74.792,90.893,72.431C90.893,70.07,92.793,68.17,95.154,68.17L109.356,68.17C111.717,68.17,113.617,70.07,113.617,72.431L113.617,86.633C113.617,88.994,111.717,90.893,109.356,90.893C106.995,90.893,105.095,88.994,105.095,86.633L105.095,84.378C100.569,88.426,94.604,90.893,88.053,90.893C77.561,90.893,68.561,84.573,64.619,75.555ZM66.75,34.085L79.532,34.085L79.532,35.257C77.65,35.789,75.839,36.499,74.117,37.351C72.306,35.345,69.679,34.085,66.75,34.085ZM66.75,34.085"/>
</g>
  <g id="Black-M" transform="matrix(1.0,0.0,0.0,1.0,2890.6425244140623,1055.5400390625)">  <path stroke-linecap="butt" stroke-dasharray="none" stroke-width="1px" stroke-opacity="1" fill-rule="nonzero" stroke-miterlimit="4" fill-opacity="1" fill="#000000" stroke-linejoin="miter" stroke="none" d="M0,15.413C0,11.766,2.959,8.807,6.606,8.807L13.211,8.807L13.211,4.404C13.211,1.968,15.179,0,17.615,0C20.051,0,22.019,1.968,22.019,4.404L22.019,8.807L39.634,8.807L39.634,4.404C39.634,1.968,41.602,0,44.037,0C46.473,0,48.441,1.968,48.441,4.404L48.441,8.807L55.047,8.807C58.694,8.807,61.652,11.766,61.652,15.413L61.652,22.019L0,22.019L0,15.413ZM0,26.422L51.744,26.422C47.505,26.422,44.079,29.835,44.037,34.06L44.037,50.753C44.079,58.9,48.138,66.097,54.331,70.46L6.606,70.46C2.959,70.46,0,67.501,0,63.854L0,26.422ZM48.441,34.129C48.441,32.299,49.914,30.826,51.744,30.826C53.574,30.826,55.047,32.299,55.047,34.129L55.047,35.877C58.556,32.739,63.18,30.826,68.258,30.826C76.391,30.826,83.368,35.725,86.424,42.716C87.153,44.382,86.382,46.336,84.717,47.065C83.052,47.794,81.098,47.024,80.368,45.359C78.332,40.693,73.666,37.432,68.258,37.432C64.336,37.432,60.827,39.125,58.405,41.836L62.753,41.836C64.584,41.836,66.056,43.308,66.056,45.138C66.056,46.969,64.584,48.441,62.753,48.441L51.744,48.441C49.914,48.441,48.441,46.969,48.441,45.138L48.441,34.129ZM50.093,58.57C49.363,56.905,50.134,54.951,51.799,54.221C53.464,53.492,55.418,54.262,56.148,55.928C58.185,60.593,62.85,63.854,68.258,63.854C72.18,63.854,75.689,62.162,78.111,59.451L73.763,59.451C71.932,59.451,70.46,57.978,70.46,56.148C70.46,54.317,71.932,52.845,73.763,52.845L84.772,52.845C86.602,52.845,88.075,54.317,88.075,56.148L88.075,67.157C88.075,68.987,86.602,70.46,84.772,70.46C82.942,70.46,81.469,68.987,81.469,67.157L81.469,65.409C77.96,68.547,73.336,70.46,68.258,70.46C60.125,70.46,53.148,65.561,50.093,58.57ZM51.744,26.422L61.652,26.422L61.652,27.331C60.194,27.744,58.79,28.294,57.455,28.955C56.051,27.4,54.015,26.422,51.744,26.422ZM51.744,26.422"/>
</g>
  <g id="Heavy-M" transform="matrix(1.0,0.0,0.0,1.0,2593.9325244140623,1055.5400390625)">  <path stroke="none" fill="#000000" stroke-linejoin="miter" stroke-width="1px" fill-rule="nonzero" stroke-linecap="butt" stroke-opacity="1" stroke-miterlimit="4" fill-opacity="1" stroke-dasharray="none" d="M0,15.413C0,11.766,2.959,8.807,6.606,8.807L13.211,8.807L13.211,4.404C13.211,1.968,15.179,0,17.615,0C20.051,0,22.019,1.968,22.019,4.404L22.019,8.807L39.634,8.807L39.634,4.404C39.634,1.968,41.602,0,44.037,0C46.473,0,48.441,1.968,48.441,4.404L48.441,8.807L55.047,8.807C58.694,8.807,61.652,11.766,61.652,15.413L61.652,22.019L0,22.019L0,15.413ZM0,26.422L51.744,26.422C47.505,26.422,44.079,29.835,44.037,34.06L44.037,50.753C44.079,58.9,48.138,66.097,54.331,70.46L6.606,70.46C2.959,70.46,0,67.501,0,63.854L0,26.422ZM48.441,34.129C48.441,32.299,49.914,30.826,51.744,30.826C53.574,30.826,55.047,32.299,55.047,34.129L55.047,35.877C58.556,32.739,63.18,30.826,68.258,30.826C76.391,30.826,83.368,35.725,86.424,42.716C87.153,44.382,86.382,46.336,84.717,47.065C83.052,47.794,81.098,47.024,80.368,45.359C78.332,40.693,73.666,37.432,68.258,37.432C64.336,37.432,60.827,39.125,58.405,41.836L62.753,41.836C64.584,41.836,66.056,43.308,66.056,45.138C66.056,46.969,64.584,48.441,62.753,48.441L51.744,48.441C49.914,48.441,48.441,46.969,48.441,45.138L48.441,34.129ZM50.093,58.57C49.363,56.905,50.134,54.951,51.799,54.221C53.464,53.492,55.418,54.262,56.148,55.928C58.185,60.593,62.85,63.854,68.258,63.854C72.18,63.854,75.689,62.162,78.111,59.451L73.763,59.451C71.932,59.451,70.46,57.978,70.46,56.148C70.46,54.317,71.932,52.845,73.763,52.845L84.772,52.845C86.602,52.845,88.075,54.317,88.075,56.148L88.075,67.157C88.075,68.987,86.602,70.46,84.772,70.46C82.942,70.46,81.469,68.987,81.469,67.157L81.469,65.409C77.96,68.547,73.336,70.46,68.258,70.46C60.125,70.46,53.148,65.561,50.093,58.57ZM51.744,26.422L61.652,26.422L61.652,27.331C60.194,27.744,58.79,28.294,57.455,28.955C56.051,27.4,54.015,26.422,51.744,26.422ZM51.744,26.422"/>
</g>
  <g id="Bold-M" transform="matrix(1.0,0.0,0.0,1.0,2297.2225244140623,1055.5400390625)">  <path stroke="none" stroke-width="1px" stroke-linejoin="miter" stroke-linecap="butt" fill="#000000" stroke-dasharray="none" fill-opacity="1" stroke-opacity="1" fill-rule="nonzero" stroke-miterlimit="4" d="M0,15.413C0,11.766,2.959,8.807,6.606,8.807L13.211,8.807L13.211,4.404C13.211,1.968,15.179,0,17.615,0C20.051,0,22.019,1.968,22.019,4.404L22.019,8.807L39.634,8.807L39.634,4.404C39.634,1.968,41.602,0,44.037,0C46.473,0,48.441,1.968,48.441,4.404L48.441,8.807L55.047,8.807C58.694,8.807,61.652,11.766,61.652,15.413L61.652,22.019L0,22.019L0,15.413ZM0,26.422L51.744,26.422C47.505,26.422,44.079,29.835,44.037,34.06L44.037,50.753C44.079,58.9,48.138,66.097,54.331,70.46L6.606,70.46C2.959,70.46,0,67.501,0,63.854L0,26.422ZM48.441,34.129C48.441,32.299,49.914,30.826,51.744,30.826C53.574,30.826,55.047,32.299,55.047,34.129L55.047,35.877C58.556,32.739,63.18,30.826,68.258,30.826C76.391,30.826,83.368,35.725,86.424,42.716C87.153,44.382,86.382,46.336,84.717,47.065C83.052,47.794,81.098,47.024,80.368,45.359C78.332,40.693,73.666,37.432,68.258,37.432C64.336,37.432,60.827,39.125,58.405,41.836L62.753,41.836C64.584,41.836,66.056,43.308,66.056,45.138C66.056,46.969,64.584,48.441,62.753,48.441L51.744,48.441C49.914,48.441,48.441,46.969,48.441,45.138L48.441,34.129ZM50.093,58.57C49.363,56.905,50.134,54.951,51.799,54.221C53.464,53.492,55.418,54.262,56.148,55.928C58.185,60.593,62.85,63.854,68.258,63.854C72.18,63.854,75.689,62.162,78.111,59.451L73.763,59.451C71.932,59.451,70.46,57.978,70.46,56.148C70.46,54.317,71.932,52.845,73.763,52.845L84.772,52.845C86.602,52.845,88.075,54.317,88.075,56.148L88.075,67.157C88.075,68.987,86.602,70.46,84.772,70.46C82.942,70.46,81.469,68.987,81.469,67.157L81.469,65.409C77.96,68.547,73.336,70.46,68.258,70.46C60.125,70.46,53.148,65.561,50.093,58.57ZM51.744,26.422L61.652,26.422L61.652,27.331C60.194,27.744,58.79,28.294,57.455,28.955C56.051,27.4,54.015,26.422,51.744,26.422ZM51.744,26.422"/>
</g>
  <g id="Semibold-M" transform="matrix(1.0,0.0,0.0,1.0,2000.5125244140625,1055.5400390625)">  <path stroke="none" stroke-dasharray="none" stroke-opacity="1" stroke-linecap="butt" fill-opacity="1" stroke-width="1px" stroke-linejoin="miter" stroke-miterlimit="4" fill-rule="nonzero" fill="#000000" d="M0,15.413C0,11.766,2.959,8.807,6.606,8.807L13.211,8.807L13.211,4.404C13.211,1.968,15.179,0,17.615,0C20.051,0,22.019,1.968,22.019,4.404L22.019,8.807L39.634,8.807L39.634,4.404C39.634,1.968,41.602,0,44.037,0C46.473,0,48.441,1.968,48.441,4.404L48.441,8.807L55.047,8.807C58.694,8.807,61.652,11.766,61.652,15.413L61.652,22.019L0,22.019L0,15.413ZM0,26.422L51.744,26.422C47.505,26.422,44.079,29.835,44.037,34.06L44.037,50.753C44.079,58.9,48.138,66.097,54.331,70.46L6.606,70.46C2.959,70.46,0,67.501,0,63.854L0,26.422ZM48.441,34.129C48.441,32.299,49.914,30.826,51.744,30.826C53.574,30.826,55.047,32.299,55.047,34.129L55.047,35.877C58.556,32.739,63.18,30.826,68.258,30.826C76.391,30.826,83.368,35.725,86.424,42.716C87.153,44.382,86.382,46.336,84.717,47.065C83.052,47.794,81.098,47.024,80.368,45.359C78.332,40.693,73.666,37.432,68.258,37.432C64.336,37.432,60.827,39.125,58.405,41.836L62.753,41.836C64.584,41.836,66.056,43.308,66.056,45.138C66.056,46.969,64.584,48.441,62.753,48.441L51.744,48.441C49.914,48.441,48.441,46.969,48.441,45.138L48.441,34.129ZM50.093,58.57C49.363,56.905,50.134,54.951,51.799,54.221C53.464,53.492,55.418,54.262,56.148,55.928C58.185,60.593,62.85,63.854,68.258,63.854C72.18,63.854,75.689,62.162,78.111,59.451L73.763,59.451C71.932,59.451,70.46,57.978,70.46,56.148C70.46,54.317,71.932,52.845,73.763,52.845L84.772,52.845C86.602,52.845,88.075,54.317,88.075,56.148L88.075,67.157C88.075,68.987,86.602,70.46,84.772,70.46C82.942,70.46,81.469,68.987,81.469,67.157L81.469,65.409C77.96,68.547,73.336,70.46,68.258,70.46C60.125,70.46,53.148,65.561,50.093,58.57ZM51.744,26.422L61.652,26.422L61.652,27.331C60.194,27.744,58.79,28.294,57.455,28.955C56.051,27.4,54.015,26.422,51.744,26.422ZM51.744,26.422"/>
</g>
  <g id="Medium-M" transform="matrix(1.0,0.0,0.0,1.0,1703.8025244140624,1055.5400390625)">  <path stroke-opacity="1" stroke-dasharray="none" stroke-width="1px" fill-rule="nonzero" stroke-miterlimit="4" fill="#000000" stroke-linejoin="miter" fill-opacity="1" stroke="none" stroke-linecap="butt" d="M0,15.413C0,11.766,2.959,8.807,6.606,8.807L13.211,8.807L13.211,4.404C13.211,1.968,15.179,0,17.615,0C20.051,0,22.019,1.968,22.019,4.404L22.019,8.807L39.634,8.807L39.634,4.404C39.634,1.968,41.602,0,44.037,0C46.473,0,48.441,1.968,48.441,4.404L48.441,8.807L55.047,8.807C58.694,8.807,61.652,11.766,61.652,15.413L61.652,22.019L0,22.019L0,15.413ZM0,26.422L51.744,26.422C47.505,26.422,44.079,29.835,44.037,34.06L44.037,50.753C44.079,58.9,48.138,66.097,54.331,70.46L6.606,70.46C2.959,70.46,0,67.501,0,63.854L0,26.422ZM48.441,34.129C48.441,32.299,49.914,30.826,51.744,30.826C53.574,30.826,55.047,32.299,55.047,34.129L55.047,35.877C58.556,32.739,63.18,30.826,68.258,30.826C76.391,30.826,83.368,35.725,86.424,42.716C87.153,44.382,86.382,46.336,84.717,47.065C83.052,47.794,81.098,47.024,80.368,45.359C78.332,40.693,73.666,37.432,68.258,37.432C64.336,37.432,60.827,39.125,58.405,41.836L62.753,41.836C64.584,41.836,66.056,43.308,66.056,45.138C66.056,46.969,64.584,48.441,62.753,48.441L51.744,48.441C49.914,48.441,48.441,46.969,48.441,45.138L48.441,34.129ZM50.093,58.57C49.363,56.905,50.134,54.951,51.799,54.221C53.464,53.492,55.418,54.262,56.148,55.928C58.185,60.593,62.85,63.854,68.258,63.854C72.18,63.854,75.689,62.162,78.111,59.451L73.763,59.451C71.932,59.451,70.46,57.978,70.46,56.148C70.46,54.317,71.932,52.845,73.763,52.845L84.772,52.845C86.602,52.845,88.075,54.317,88.075,56.148L88.075,67.157C88.075,68.987,86.602,70.46,84.772,70.46C82.942,70.46,81.469,68.987,81.469,67.157L81.469,65.409C77.96,68.547,73.336,70.46,68.258,70.46C60.125,70.46,53.148,65.561,50.093,58.57ZM51.744,26.422L61.652,26.422L61.652,27.331C60.194,27.744,58.79,28.294,57.455,28.955C56.051,27.4,54.015,26.422,51.744,26.422ZM51.744,26.422"/>
</g>
  <g id="Regular-M" transform="matrix(1.0,0.0,0.0,1.0,1407.0925244140624,1055.5400390625)">  <path stroke-linejoin="miter" stroke-opacity="1" fill="#000000" stroke-width="1px" stroke-dasharray="none" fill-opacity="1" stroke="none" fill-rule="nonzero" stroke-linecap="butt" stroke-miterlimit="4" d="M0,15.413C0,11.766,2.959,8.807,6.606,8.807L13.211,8.807L13.211,4.404C13.211,1.968,15.179,0,17.615,0C20.051,0,22.019,1.968,22.019,4.404L22.019,8.807L39.634,8.807L39.634,4.404C39.634,1.968,41.602,0,44.037,0C46.473,0,48.441,1.968,48.441,4.404L48.441,8.807L55.047,8.807C58.694,8.807,61.652,11.766,61.652,15.413L61.652,22.019L0,22.019L0,15.413ZM0,26.422L51.744,26.422C47.505,26.422,44.079,29.835,44.037,34.06L44.037,50.753C44.079,58.9,48.138,66.097,54.331,70.46L6.606,70.46C2.959,70.46,0,67.501,0,63.854L0,26.422ZM48.441,34.129C48.441,32.299,49.914,30.826,51.744,30.826C53.574,30.826,55.047,32.299,55.047,34.129L55.047,35.877C58.556,32.739,63.18,30.826,68.258,30.826C76.391,30.826,83.368,35.725,86.424,42.716C87.153,44.382,86.382,46.336,84.717,47.065C83.052,47.794,81.098,47.024,80.368,45.359C78.332,40.693,73.666,37.432,68.258,37.432C64.336,37.432,60.827,39.125,58.405,41.836L62.753,41.836C64.584,41.836,66.056,43.308,66.056,45.138C66.056,46.969,64.584,48.441,62.753,48.441L51.744,48.441C49.914,48.441,48.441,46.969,48.441,45.138L48.441,34.129ZM50.093,58.57C49.363,56.905,50.134,54.951,51.799,54.221C53.464,53.492,55.418,54.262,56.148,55.928C58.185,60.593,62.85,63.854,68.258,63.854C72.18,63.854,75.689,62.162,78.111,59.451L73.763,59.451C71.932,59.451,70.46,57.978,70.46,56.148C70.46,54.317,71.932,52.845,73.763,52.845L84.772,52.845C86.602,52.845,88.075,54.317,88.075,56.148L88.075,67.157C88.075,68.987,86.602,70.46,84.772,70.46C82.942,70.46,81.469,68.987,81.469,67.157L81.469,65.409C77.96,68.547,73.336,70.46,68.258,70.46C60.125,70.46,53.148,65.561,50.093,58.57ZM51.744,26.422L61.652,26.422L61.652,27.331C60.194,27.744,58.79,28.294,57.455,28.955C56.051,27.4,54.015,26.422,51.744,26.422ZM51.744,26.422"/>
</g>
  <g id="Light-M" transform="matrix(1.0,0.0,0.0,1.0,1110.3825244140626,1055.5400390625)">  <path stroke="none" stroke-width="1px" fill="#000000" fill-opacity="1" stroke-linejoin="miter" fill-rule="nonzero" stroke-dasharray="none" stroke-miterlimit="4" stroke-opacity="1" stroke-linecap="butt" d="M0,15.413C0,11.766,2.959,8.807,6.606,8.807L13.211,8.807L13.211,4.404C13.211,1.968,15.179,0,17.615,0C20.051,0,22.019,1.968,22.019,4.404L22.019,8.807L39.634,8.807L39.634,4.404C39.634,1.968,41.602,0,44.037,0C46.473,0,48.441,1.968,48.441,4.404L48.441,8.807L55.047,8.807C58.694,8.807,61.652,11.766,61.652,15.413L61.652,22.019L0,22.019L0,15.413ZM0,26.422L51.744,26.422C47.505,26.422,44.079,29.835,44.037,34.06L44.037,50.753C44.079,58.9,48.138,66.097,54.331,70.46L6.606,70.46C2.959,70.46,0,67.501,0,63.854L0,26.422ZM48.441,34.129C48.441,32.299,49.914,30.826,51.744,30.826C53.574,30.826,55.047,32.299,55.047,34.129L55.047,35.877C58.556,32.739,63.18,30.826,68.258,30.826C76.391,30.826,83.368,35.725,86.424,42.716C87.153,44.382,86.382,46.336,84.717,47.065C83.052,47.794,81.098,47.024,80.368,45.359C78.332,40.693,73.666,37.432,68.258,37.432C64.336,37.432,60.827,39.125,58.405,41.836L62.753,41.836C64.584,41.836,66.056,43.308,66.056,45.138C66.056,46.969,64.584,48.441,62.753,48.441L51.744,48.441C49.914,48.441,48.441,46.969,48.441,45.138L48.441,34.129ZM50.093,58.57C49.363,56.905,50.134,54.951,51.799,54.221C53.464,53.492,55.418,54.262,56.148,55.928C58.185,60.593,62.85,63.854,68.258,63.854C72.18,63.854,75.689,62.162,78.111,59.451L73.763,59.451C71.932,59.451,70.46,57.978,70.46,56.148C70.46,54.317,71.932,52.845,73.763,52.845L84.772,52.845C86.602,52.845,88.075,54.317,88.075,56.148L88.075,67.157C88.075,68.987,86.602,70.46,84.772,70.46C82.942,70.46,81.469,68.987,81.469,67.157L81.469,65.409C77.96,68.547,73.336,70.46,68.258,70.46C60.125,70.46,53.148,65.561,50.093,58.57ZM51.744,26.422L61.652,26.422L61.652,27.331C60.194,27.744,58.79,28.294,57.455,28.955C56.051,27.4,54.015,26.422,51.744,26.422ZM51.744,26.422"/>
</g>
  <g id="Thin-M" transform="matrix(1.0,0.0,0.0,1.0,813.6725244140625,1055.5400390625)">  <path stroke-linecap="butt" stroke="none" fill-rule="nonzero" stroke-miterlimit="4" stroke-width="1px" stroke-linejoin="miter" stroke-opacity="1" stroke-dasharray="none" fill="#000000" fill-opacity="1" d="M0,15.413C0,11.766,2.959,8.807,6.606,8.807L13.211,8.807L13.211,4.404C13.211,1.968,15.179,0,17.615,0C20.051,0,22.019,1.968,22.019,4.404L22.019,8.807L39.634,8.807L39.634,4.404C39.634,1.968,41.602,0,44.037,0C46.473,0,48.441,1.968,48.441,4.404L48.441,8.807L55.047,8.807C58.694,8.807,61.652,11.766,61.652,15.413L61.652,22.019L0,22.019L0,15.413ZM0,26.422L51.744,26.422C47.505,26.422,44.079,29.835,44.037,34.06L44.037,50.753C44.079,58.9,48.138,66.097,54.331,70.46L6.606,70.46C2.959,70.46,0,67.501,0,63.854L0,26.422ZM48.441,34.129C48.441,32.299,49.914,30.826,51.744,30.826C53.574,30.826,55.047,32.299,55.047,34.129L55.047,35.877C58.556,32.739,63.18,30.826,68.258,30.826C76.391,30.826,83.368,35.725,86.424,42.716C87.153,44.382,86.382,46.336,84.717,47.065C83.052,47.794,81.098,47.024,80.368,45.359C78.332,40.693,73.666,37.432,68.258,37.432C64.336,37.432,60.827,39.125,58.405,41.836L62.753,41.836C64.584,41.836,66.056,43.308,66.056,45.138C66.056,46.969,64.584,48.441,62.753,48.441L51.744,48.441C49.914,48.441,48.441,46.969,48.441,45.138L48.441,34.129ZM50.093,58.57C49.363,56.905,50.134,54.951,51.799,54.221C53.464,53.492,55.418,54.262,56.148,55.928C58.185,60.593,62.85,63.854,68.258,63.854C72.18,63.854,75.689,62.162,78.111,59.451L73.763,59.451C71.932,59.451,70.46,57.978,70.46,56.148C70.46,54.317,71.932,52.845,73.763,52.845L84.772,52.845C86.602,52.845,88.075,54.317,88.075,56.148L88.075,67.157C88.075,68.987,86.602,70.46,84.772,70.46C82.942,70.46,81.469,68.987,81.469,67.157L81.469,65.409C77.96,68.547,73.336,70.46,68.258,70.46C60.125,70.46,53.148,65.561,50.093,58.57ZM51.744,26.422L61.652,26.422L61.652,27.331C60.194,27.744,58.79,28.294,57.455,28.955C56.051,27.4,54.015,26.422,51.744,26.422ZM51.744,26.422"/>
</g>
  <g id="Ultralight-M" transform="matrix(1.0,0.0,0.0,1.0,516.9625244140625,1055.5400390625)">  <path stroke-linecap="butt" stroke="none" fill="#000000" stroke-dasharray="none" fill-rule="nonzero" stroke-opacity="1" fill-opacity="1" stroke-miterlimit="4" stroke-linejoin="miter" stroke-width="1px" d="M0,15.413C0,11.766,2.959,8.807,6.606,8.807L13.211,8.807L13.211,4.404C13.211,1.968,15.179,0,17.615,0C20.051,0,22.019,1.968,22.019,4.404L22.019,8.807L39.634,8.807L39.634,4.404C39.634,1.968,41.602,0,44.037,0C46.473,0,48.441,1.968,48.441,4.404L48.441,8.807L55.047,8.807C58.694,8.807,61.652,11.766,61.652,15.413L61.652,22.019L0,22.019L0,15.413ZM0,26.422L51.744,26.422C47.505,26.422,44.079,29.835,44.037,34.06L44.037,50.753C44.079,58.9,48.138,66.097,54.331,70.46L6.606,70.46C2.959,70.46,0,67.501,0,63.854L0,26.422ZM48.441,34.129C48.441,32.299,49.914,30.826,51.744,30.826C53.574,30.826,55.047,32.299,55.047,34.129L55.047,35.877C58.556,32.739,63.18,30.826,68.258,30.826C76.391,30.826,83.368,35.725,86.424,42.716C87.153,44.382,86.382,46.336,84.717,47.065C83.052,47.794,81.098,47.024,80.368,45.359C78.332,40.693,73.666,37.432,68.258,37.432C64.336,37.432,60.827,39.125,58.405,41.836L62.753,41.836C64.584,41.836,66.056,43.308,66.056,45.138C66.056,46.969,64.584,48.441,62.753,48.441L51.744,48.441C49.914,48.441,48.441,46.969,48.441,45.138L48.441,34.129ZM50.093,58.57C49.363,56.905,50.134,54.951,51.799,54.221C53.464,53.492,55.418,54.262,56.148,55.928C58.185,60.593,62.85,63.854,68.258,63.854C72.18,63.854,75.689,62.162,78.111,59.451L73.763,59.451C71.932,59.451,70.46,57.978,70.46,56.148C70.46,54.317,71.932,52.845,73.763,52.845L84.772,52.845C86.602,52.845,88.075,54.317,88.075,56.148L88.075,67.157C88.075,68.987,86.602,70.46,84.772,70.46C82.942,70.46,81.469,68.987,81.469,67.157L81.469,65.409C77.96,68.547,73.336,70.46,68.258,70.46C60.125,70.46,53.148,65.561,50.093,58.57ZM51.744,26.422L61.652,26.422L61.652,27.331C60.194,27.744,58.79,28.294,57.455,28.955C56.051,27.4,54.015,26.422,51.744,26.422ZM51.744,26.422"/>
</g>
  <g id="Black-S" transform="matrix(1.0,0.0,0.0,1.0,2900.198656616211,633.1849448242187)">  <path stroke-linecap="butt" stroke-dasharray="none" stroke-width="1px" stroke-opacity="1" fill-rule="nonzero" stroke-miterlimit="4" fill-opacity="1" fill="#000000" stroke-linejoin="miter" stroke="none" d="M0,12.068C0,9.213,2.317,6.896,5.172,6.896L10.344,6.896L10.344,3.448C10.344,1.541,11.885,0,13.793,0C15.7,0,17.241,1.541,17.241,3.448L17.241,6.896L31.033,6.896L31.033,3.448C31.033,1.541,32.574,0,34.481,0C36.389,0,37.929,1.541,37.929,3.448L37.929,6.896L43.102,6.896C45.957,6.896,48.274,9.213,48.274,12.068L48.274,17.241L0,17.241L0,12.068ZM0,20.689L40.516,20.689C37.197,20.689,34.514,23.361,34.481,26.669L34.481,39.74C34.514,46.119,37.692,51.754,42.541,55.17L5.172,55.17C2.317,55.17,0,52.853,0,49.998L0,20.689ZM37.929,26.723C37.929,25.29,39.082,24.137,40.516,24.137C41.949,24.137,43.102,25.29,43.102,26.723L43.102,28.092C45.849,25.635,49.47,24.137,53.446,24.137C59.814,24.137,65.277,27.973,67.67,33.447C68.241,34.751,67.637,36.281,66.333,36.852C65.03,37.423,63.5,36.82,62.928,35.516C61.334,31.863,57.681,29.309,53.446,29.309C50.375,29.309,47.627,30.635,45.731,32.757L49.136,32.757C50.569,32.757,51.722,33.91,51.722,35.343C51.722,36.777,50.569,37.929,49.136,37.929L40.516,37.929C39.082,37.929,37.929,36.777,37.929,35.343L37.929,26.723ZM39.223,45.86C38.651,44.556,39.255,43.026,40.559,42.455C41.863,41.884,43.393,42.487,43.964,43.791C45.558,47.444,49.211,49.998,53.446,49.998C56.517,49.998,59.265,48.673,61.161,46.55L57.756,46.55C56.323,46.55,55.17,45.397,55.17,43.964C55.17,42.531,56.323,41.378,57.756,41.378L66.377,41.378C67.81,41.378,68.963,42.531,68.963,43.964L68.963,52.584C68.963,54.017,67.81,55.17,66.377,55.17C64.943,55.17,63.79,54.017,63.79,52.584L63.79,51.216C61.043,53.672,57.422,55.17,53.446,55.17C47.078,55.17,41.615,51.334,39.223,45.86ZM40.516,20.689L48.274,20.689L48.274,21.4C47.132,21.723,46.033,22.154,44.987,22.671C43.888,21.454,42.294,20.689,40.516,20.689ZM40.516,20.689"/>
</g>
  <g id="Heavy-S" transform="matrix(1.0,0.0,0.0,1.0,2603.488656616211,633.1849448242187)">  <path stroke="none" fill="#000000" stroke-linejoin="miter" stroke-width="1px" fill-rule="nonzero" stroke-linecap="butt" stroke-opacity="1" stroke-miterlimit="4" fill-opacity="1" stroke-dasharray="none" d="M0,12.068C0,9.213,2.317,6.896,5.172,6.896L10.344,6.896L10.344,3.448C10.344,1.541,11.885,0,13.793,0C15.7,0,17.241,1.541,17.241,3.448L17.241,6.896L31.033,6.896L31.033,3.448C31.033,1.541,32.574,0,34.481,0C36.389,0,37.929,1.541,37.929,3.448L37.929,6.896L43.102,6.896C45.957,6.896,48.274,9.213,48.274,12.068L48.274,17.241L0,17.241L0,12.068ZM0,20.689L40.516,20.689C37.197,20.689,34.514,23.361,34.481,26.669L34.481,39.74C34.514,46.119,37.692,51.754,42.541,55.17L5.172,55.17C2.317,55.17,0,52.853,0,49.998L0,20.689ZM37.929,26.723C37.929,25.29,39.082,24.137,40.516,24.137C41.949,24.137,43.102,25.29,43.102,26.723L43.102,28.092C45.849,25.635,49.47,24.137,53.446,24.137C59.814,24.137,65.277,27.973,67.67,33.447C68.241,34.751,67.637,36.281,66.333,36.852C65.03,37.423,63.5,36.82,62.928,35.516C61.334,31.863,57.681,29.309,53.446,29.309C50.375,29.309,47.627,30.635,45.731,32.757L49.136,32.757C50.569,32.757,51.722,33.91,51.722,35.343C51.722,36.777,50.569,37.929,49.136,37.929L40.516,37.929C39.082,37.929,37.929,36.777,37.929,35.343L37.929,26.723ZM39.223,45.86C38.651,44.556,39.255,43.026,40.559,42.455C41.863,41.884,43.393,42.487,43.964,43.791C45.558,47.444,49.211,49.998,53.446,49.998C56.517,49.998,59.265,48.673,61.161,46.55L57.756,46.55C56.323,46.55,55.17,45.397,55.17,43.964C55.17,42.531,56.323,41.378,57.756,41.378L66.377,41.378C67.81,41.378,68.963,42.531,68.963,43.964L68.963,52.584C68.963,54.017,67.81,55.17,66.377,55.17C64.943,55.17,63.79,54.017,63.79,52.584L63.79,51.216C61.043,53.672,57.422,55.17,53.446,55.17C47.078,55.17,41.615,51.334,39.223,45.86ZM40.516,20.689L48.274,20.689L48.274,21.4C47.132,21.723,46.033,22.154,44.987,22.671C43.888,21.454,42.294,20.689,40.516,20.689ZM40.516,20.689"/>
</g>
  <g id="Bold-S" transform="matrix(1.0,0.0,0.0,1.0,2306.778656616211,633.1849448242187)">  <path stroke="none" stroke-width="1px" stroke-linejoin="miter" stroke-linecap="butt" fill="#000000" stroke-dasharray="none" fill-opacity="1" stroke-opacity="1" fill-rule="nonzero" stroke-miterlimit="4" d="M0,12.068C0,9.213,2.317,6.896,5.172,6.896L10.344,6.896L10.344,3.448C10.344,1.541,11.885,0,13.793,0C15.7,0,17.241,1.541,17.241,3.448L17.241,6.896L31.033,6.896L31.033,3.448C31.033,1.541,32.574,0,34.481,0C36.389,0,37.929,1.541,37.929,3.448L37.929,6.896L43.102,6.896C45.957,6.896,48.274,9.213,48.274,12.068L48.274,17.241L0,17.241L0,12.068ZM0,20.689L40.516,20.689C37.197,20.689,34.514,23.361,34.481,26.669L34.481,39.74C34.514,46.119,37.692,51.754,42.541,55.17L5.172,55.17C2.317,55.17,0,52.853,0,49.998L0,20.689ZM37.929,26.723C37.929,25.29,39.082,24.137,40.516,24.137C41.949,24.137,43.102,25.29,43.102,26.723L43.102,28.092C45.849,25.635,49.47,24.137,53.446,24.137C59.814,24.137,65.277,27.973,67.67,33.447C68.241,34.751,67.637,36.281,66.333,36.852C65.03,37.423,63.5,36.82,62.928,35.516C61.334,31.863,57.681,29.309,53.446,29.309C50.375,29.309,47.627,30.635,45.731,32.757L49.136,32.757C50.569,32.757,51.722,33.91,51.722,35.343C51.722,36.777,50.569,37.929,49.136,37.929L40.516,37.929C39.082,37.929,37.929,36.777,37.929,35.343L37.929,26.723ZM39.223,45.86C38.651,44.556,39.255,43.026,40.559,42.455C41.863,41.884,43.393,42.487,43.964,43.791C45.558,47.444,49.211,49.998,53.446,49.998C56.517,49.998,59.265,48.673,61.161,46.55L57.756,46.55C56.323,46.55,55.17,45.397,55.17,43.964C55.17,42.531,56.323,41.378,57.756,41.378L66.377,41.378C67.81,41.378,68.963,42.531,68.963,43.964L68.963,52.584C68.963,54.017,67.81,55.17,66.377,55.17C64.943,55.17,63.79,54.017,63.79,52.584L63.79,51.216C61.043,53.672,57.422,55.17,53.446,55.17C47.078,55.17,41.615,51.334,39.223,45.86ZM40.516,20.689L48.274,20.689L48.274,21.4C47.132,21.723,46.033,22.154,44.987,22.671C43.888,21.454,42.294,20.689,40.516,20.689ZM40.516,20.689"/>
</g>
  <g id="Semibold-S" transform="matrix(1.0,0.0,0.0,1.0,2010.068656616211,633.1849448242187)">  <path stroke="none" stroke-dasharray="none" stroke-opacity="1" stroke-linecap="butt" fill-opacity="1" stroke-width="1px" stroke-linejoin="miter" stroke-miterlimit="4" fill-rule="nonzero" fill="#000000" d="M0,12.068C0,9.213,2.317,6.896,5.172,6.896L10.344,6.896L10.344,3.448C10.344,1.541,11.885,0,13.793,0C15.7,0,17.241,1.541,17.241,3.448L17.241,6.896L31.033,6.896L31.033,3.448C31.033,1.541,32.574,0,34.481,0C36.389,0,37.929,1.541,37.929,3.448L37.929,6.896L43.102,6.896C45.957,6.896,48.274,9.213,48.274,12.068L48.274,17.241L0,17.241L0,12.068ZM0,20.689L40.516,20.689C37.197,20.689,34.514,23.361,34.481,26.669L34.481,39.74C34.514,46.119,37.692,51.754,42.541,55.17L5.172,55.17C2.317,55.17,0,52.853,0,49.998L0,20.689ZM37.929,26.723C37.929,25.29,39.082,24.137,40.516,24.137C41.949,24.137,43.102,25.29,43.102,26.723L43.102,28.092C45.849,25.635,49.47,24.137,53.446,24.137C59.814,24.137,65.277,27.973,67.67,33.447C68.241,34.751,67.637,36.281,66.333,36.852C65.03,37.423,63.5,36.82,62.928,35.516C61.334,31.863,57.681,29.309,53.446,29.309C50.375,29.309,47.627,30.635,45.731,32.757L49.136,32.757C50.569,32.757,51.722,33.91,51.722,35.343C51.722,36.777,50.569,37.929,49.136,37.929L40.516,37.929C39.082,37.929,37.929,36.777,37.929,35.343L37.929,26.723ZM39.223,45.86C38.651,44.556,39.255,43.026,40.559,42.455C41.863,41.884,43.393,42.487,43.964,43.791C45.558,47.444,49.211,49.998,53.446,49.998C56.517,49.998,59.265,48.673,61.161,46.55L57.756,46.55C56.323,46.55,55.17,45.397,55.17,43.964C55.17,42.531,56.323,41.378,57.756,41.378L66.377,41.378C67.81,41.378,68.963,42.531,68.963,43.964L68.963,52.584C68.963,54.017,67.81,55.17,66.377,55.17C64.943,55.17,63.79,54.017,63.79,52.584L63.79,51.216C61.043,53.672,57.422,55.17,53.446,55.17C47.078,55.17,41.615,51.334,39.223,45.86ZM40.516,20.689L48.274,20.689L48.274,21.4C47.132,21.723,46.033,22.154,44.987,22.671C43.888,21.454,42.294,20.689,40.516,20.689ZM40.516,20.689"/>
</g>
  <g id="Medium-S" transform="matrix(1.0,0.0,0.0,1.0,1713.358656616211,633.1849448242187)">  <path stroke-opacity="1" stroke-dasharray="none" stroke-width="1px" fill-rule="nonzero" stroke-miterlimit="4" fill="#000000" stroke-linejoin="miter" fill-opacity="1" stroke="none" stroke-linecap="butt" d="M0,12.068C0,9.213,2.317,6.896,5.172,6.896L10.344,6.896L10.344,3.448C10.344,1.541,11.885,0,13.793,0C15.7,0,17.241,1.541,17.241,3.448L17.241,6.896L31.033,6.896L31.033,3.448C31.033,1.541,32.574,0,34.481,0C36.389,0,37.929,1.541,37.929,3.448L37.929,6.896L43.102,6.896C45.957,6.896,48.274,9.213,48.274,12.068L48.274,17.241L0,17.241L0,12.068ZM0,20.689L40.516,20.689C37.197,20.689,34.514,23.361,34.481,26.669L34.481,39.74C34.514,46.119,37.692,51.754,42.541,55.17L5.172,55.17C2.317,55.17,0,52.853,0,49.998L0,20.689ZM37.929,26.723C37.929,25.29,39.082,24.137,40.516,24.137C41.949,24.137,43.102,25.29,43.102,26.723L43.102,28.092C45.849,25.635,49.47,24.137,53.446,24.137C59.814,24.137,65.277,27.973,67.67,33.447C68.241,34.751,67.637,36.281,66.333,36.852C65.03,37.423,63.5,36.82,62.928,35.516C61.334,31.863,57.681,29.309,53.446,29.309C50.375,29.309,47.627,30.635,45.731,32.757L49.136,32.757C50.569,32.757,51.722,33.91,51.722,35.343C51.722,36.777,50.569,37.929,49.136,37.929L40.516,37.929C39.082,37.929,37.929,36.777,37.929,35.343L37.929,26.723ZM39.223,45.86C38.651,44.556,39.255,43.026,40.559,42.455C41.863,41.884,43.393,42.487,43.964,43.791C45.558,47.444,49.211,49.998,53.446,49.998C56.517,49.998,59.265,48.673,61.161,46.55L57.756,46.55C56.323,46.55,55.17,45.397,55.17,43.964C55.17,42.531,56.323,41.378,57.756,41.378L66.377,41.378C67.81,41.378,68.963,42.531,68.963,43.964L68.963,52.584C68.963,54.017,67.81,55.17,66.377,55.17C64.943,55.17,63.79,54.017,63.79,52.584L63.79,51.216C61.043,53.672,57.422,55.17,53.446,55.17C47.078,55.17,41.615,51.334,39.223,45.86ZM40.516,20.689L48.274,20.689L48.274,21.4C47.132,21.723,46.033,22.154,44.987,22.671C43.888,21.454,42.294,20.689,40.516,20.689ZM40.516,20.689"/>
</g>
  <g id="Regular-S" transform="matrix(1.0,0.0,0.0,1.0,1416.648656616211,633.1849448242187)">  <path stroke-linejoin="miter" stroke-opacity="1" fill="#000000" stroke-width="1px" stroke-dasharray="none" fill-opacity="1" stroke="none" fill-rule="nonzero" stroke-linecap="butt" stroke-miterlimit="4" d="M0,12.068C0,9.213,2.317,6.896,5.172,6.896L10.344,6.896L10.344,3.448C10.344,1.541,11.885,0,13.793,0C15.7,0,17.241,1.541,17.241,3.448L17.241,6.896L31.033,6.896L31.033,3.448C31.033,1.541,32.574,0,34.481,0C36.389,0,37.929,1.541,37.929,3.448L37.929,6.896L43.102,6.896C45.957,6.896,48.274,9.213,48.274,12.068L48.274,17.241L0,17.241L0,12.068ZM0,20.689L40.516,20.689C37.197,20.689,34.514,23.361,34.481,26.669L34.481,39.74C34.514,46.119,37.692,51.754,42.541,55.17L5.172,55.17C2.317,55.17,0,52.853,0,49.998L0,20.689ZM37.929,26.723C37.929,25.29,39.082,24.137,40.516,24.137C41.949,24.137,43.102,25.29,43.102,26.723L43.102,28.092C45.849,25.635,49.47,24.137,53.446,24.137C59.814,24.137,65.277,27.973,67.67,33.447C68.241,34.751,67.637,36.281,66.333,36.852C65.03,37.423,63.5,36.82,62.928,35.516C61.334,31.863,57.681,29.309,53.446,29.309C50.375,29.309,47.627,30.635,45.731,32.757L49.136,32.757C50.569,32.757,51.722,33.91,51.722,35.343C51.722,36.777,50.569,37.929,49.136,37.929L40.516,37.929C39.082,37.929,37.929,36.777,37.929,35.343L37.929,26.723ZM39.223,45.86C38.651,44.556,39.255,43.026,40.559,42.455C41.863,41.884,43.393,42.487,43.964,43.791C45.558,47.444,49.211,49.998,53.446,49.998C56.517,49.998,59.265,48.673,61.161,46.55L57.756,46.55C56.323,46.55,55.17,45.397,55.17,43.964C55.17,42.531,56.323,41.378,57.756,41.378L66.377,41.378C67.81,41.378,68.963,42.531,68.963,43.964L68.963,52.584C68.963,54.017,67.81,55.17,66.377,55.17C64.943,55.17,63.79,54.017,63.79,52.584L63.79,51.216C61.043,53.672,57.422,55.17,53.446,55.17C47.078,55.17,41.615,51.334,39.223,45.86ZM40.516,20.689L48.274,20.689L48.274,21.4C47.132,21.723,46.033,22.154,44.987,22.671C43.888,21.454,42.294,20.689,40.516,20.689ZM40.516,20.689"/>
</g>
  <g id="Light-S" transform="matrix(1.0,0.0,0.0,1.0,1119.9386566162111,633.1849448242187)">  <path stroke="none" stroke-width="1px" fill="#000000" fill-opacity="1" stroke-linejoin="miter" fill-rule="nonzero" stroke-dasharray="none" stroke-miterlimit="4" stroke-opacity="1" stroke-linecap="butt" d="M0,12.068C0,9.213,2.317,6.896,5.172,6.896L10.344,6.896L10.344,3.448C10.344,1.541,11.885,0,13.793,0C15.7,0,17.241,1.541,17.241,3.448L17.241,6.896L31.033,6.896L31.033,3.448C31.033,1.541,32.574,0,34.481,0C36.389,0,37.929,1.541,37.929,3.448L37.929,6.896L43.102,6.896C45.957,6.896,48.274,9.213,48.274,12.068L48.274,17.241L0,17.241L0,12.068ZM0,20.689L40.516,20.689C37.197,20.689,34.514,23.361,34.481,26.669L34.481,39.74C34.514,46.119,37.692,51.754,42.541,55.17L5.172,55.17C2.317,55.17,0,52.853,0,49.998L0,20.689ZM37.929,26.723C37.929,25.29,39.082,24.137,40.516,24.137C41.949,24.137,43.102,25.29,43.102,26.723L43.102,28.092C45.849,25.635,49.47,24.137,53.446,24.137C59.814,24.137,65.277,27.973,67.67,33.447C68.241,34.751,67.637,36.281,66.333,36.852C65.03,37.423,63.5,36.82,62.928,35.516C61.334,31.863,57.681,29.309,53.446,29.309C50.375,29.309,47.627,30.635,45.731,32.757L49.136,32.757C50.569,32.757,51.722,33.91,51.722,35.343C51.722,36.777,50.569,37.929,49.136,37.929L40.516,37.929C39.082,37.929,37.929,36.777,37.929,35.343L37.929,26.723ZM39.223,45.86C38.651,44.556,39.255,43.026,40.559,42.455C41.863,41.884,43.393,42.487,43.964,43.791C45.558,47.444,49.211,49.998,53.446,49.998C56.517,49.998,59.265,48.673,61.161,46.55L57.756,46.55C56.323,46.55,55.17,45.397,55.17,43.964C55.17,42.531,56.323,41.378,57.756,41.378L66.377,41.378C67.81,41.378,68.963,42.531,68.963,43.964L68.963,52.584C68.963,54.017,67.81,55.17,66.377,55.17C64.943,55.17,63.79,54.017,63.79,52.584L63.79,51.216C61.043,53.672,57.422,55.17,53.446,55.17C47.078,55.17,41.615,51.334,39.223,45.86ZM40.516,20.689L48.274,20.689L48.274,21.4C47.132,21.723,46.033,22.154,44.987,22.671C43.888,21.454,42.294,20.689,40.516,20.689ZM40.516,20.689"/>
</g>
  <g id="Thin-S" transform="matrix(1.0,0.0,0.0,1.0,823.228656616211,633.1849448242187)">  <path stroke-linecap="butt" stroke="none" fill-rule="nonzero" stroke-miterlimit="4" stroke-width="1px" stroke-linejoin="miter" stroke-opacity="1" stroke-dasharray="none" fill="#000000" fill-opacity="1" d="M0,12.068C0,9.213,2.317,6.896,5.172,6.896L10.344,6.896L10.344,3.448C10.344,1.541,11.885,0,13.793,0C15.7,0,17.241,1.541,17.241,3.448L17.241,6.896L31.033,6.896L31.033,3.448C31.033,1.541,32.574,0,34.481,0C36.389,0,37.929,1.541,37.929,3.448L37.929,6.896L43.102,6.896C45.957,6.896,48.274,9.213,48.274,12.068L48.274,17.241L0,17.241L0,12.068ZM0,20.689L40.516,20.689C37.197,20.689,34.514,23.361,34.481,26.669L34.481,39.74C34.514,46.119,37.692,51.754,42.541,55.17L5.172,55.17C2.317,55.17,0,52.853,0,49.998L0,20.689ZM37.929,26.723C37.929,25.29,39.082,24.137,40.516,24.137C41.949,24.137,43.102,25.29,43.102,26.723L43.102,28.092C45.849,25.635,49.47,24.137,53.446,24.137C59.814,24.137,65.277,27.973,67.67,33.447C68.241,34.751,67.637,36.281,66.333,36.852C65.03,37.423,63.5,36.82,62.928,35.516C61.334,31.863,57.681,29.309,53.446,29.309C50.375,29.309,47.627,30.635,45.731,32.757L49.136,32.757C50.569,32.757,51.722,33.91,51.722,35.343C51.722,36.777,50.569,37.929,49.136,37.929L40.516,37.929C39.082,37.929,37.929,36.777,37.929,35.343L37.929,26.723ZM39.223,45.86C38.651,44.556,39.255,43.026,40.559,42.455C41.863,41.884,43.393,42.487,43.964,43.791C45.558,47.444,49.211,49.998,53.446,49.998C56.517,49.998,59.265,48.673,61.161,46.55L57.756,46.55C56.323,46.55,55.17,45.397,55.17,43.964C55.17,42.531,56.323,41.378,57.756,41.378L66.377,41.378C67.81,41.378,68.963,42.531,68.963,43.964L68.963,52.584C68.963,54.017,67.81,55.17,66.377,55.17C64.943,55.17,63.79,54.017,63.79,52.584L63.79,51.216C61.043,53.672,57.422,55.17,53.446,55.17C47.078,55.17,41.615,51.334,39.223,45.86ZM40.516,20.689L48.274,20.689L48.274,21.4C47.132,21.723,46.033,22.154,44.987,22.671C43.888,21.454,42.294,20.689,40.516,20.689ZM40.516,20.689"/>
</g>
  <g id="Ultralight-S" transform="matrix(1.0,0.0,0.0,1.0,526.5186566162109,633.1849448242187)">  <path stroke-linecap="butt" stroke="none" fill="#000000" stroke-dasharray="none" fill-rule="nonzero" stroke-opacity="1" fill-opacity="1" stroke-miterlimit="4" stroke-linejoin="miter" stroke-width="1px" d="M0,12.068C0,9.213,2.317,6.896,5.172,6.896L10.344,6.896L10.344,3.448C10.344,1.541,11.885,0,13.793,0C15.7,0,17.241,1.541,17.241,3.448L17.241,6.896L31.033,6.896L31.033,3.448C31.033,1.541,32.574,0,34.481,0C36.389,0,37.929,1.541,37.929,3.448L37.929,6.896L43.102,6.896C45.957,6.896,48.274,9.213,48.274,12.068L48.274,17.241L0,17.241L0,12.068ZM0,20.689L40.516,20.689C37.197,20.689,34.514,23.361,34.481,26.669L34.481,39.74C34.514,46.119,37.692,51.754,42.541,55.17L5.172,55.17C2.317,55.17,0,52.853,0,49.998L0,20.689ZM37.929,26.723C37.929,25.29,39.082,24.137,40.516,24.137C41.949,24.137,43.102,25.29,43.102,26.723L43.102,28.092C45.849,25.635,49.47,24.137,53.446,24.137C59.814,24.137,65.277,27.973,67.67,33.447C68.241,34.751,67.637,36.281,66.333,36.852C65.03,37.423,63.5,36.82,62.928,35.516C61.334,31.863,57.681,29.309,53.446,29.309C50.375,29.309,47.627,30.635,45.731,32.757L49.136,32.757C50.569,32.757,51.722,33.91,51.722,35.343C51.722,36.777,50.569,37.929,49.136,37.929L40.516,37.929C39.082,37.929,37.929,36.777,37.929,35.343L37.929,26.723ZM39.223,45.86C38.651,44.556,39.255,43.026,40.559,42.455C41.863,41.884,43.393,42.487,43.964,43.791C45.558,47.444,49.211,49.998,53.446,49.998C56.517,49.998,59.265,48.673,61.161,46.55L57.756,46.55C56.323,46.55,55.17,45.397,55.17,43.964C55.17,42.531,56.323,41.378,57.756,41.378L66.377,41.378C67.81,41.378,68.963,42.531,68.963,43.964L68.963,52.584C68.963,54.017,67.81,55.17,66.377,55.17C64.943,55.17,63.79,54.017,63.79,52.584L63.79,51.216C61.043,53.672,57.422,55.17,53.446,55.17C47.078,55.17,41.615,51.334,39.223,45.86ZM40.516,20.689L48.274,20.689L48.274,21.4C47.132,21.723,46.033,22.154,44.987,22.671C43.888,21.454,42.294,20.689,40.516,20.689ZM40.516,20.689"/>
</g>
 </g>
</svg>
